<?xml version="1.0" encoding="UTF-8" standalone="no"?>
<svg
   xmlns:dc="http://purl.org/dc/elements/1.1/"
   xmlns:cc="http://creativecommons.org/ns#"
   xmlns:rdf="http://www.w3.org/1999/02/22-rdf-syntax-ns#"
   xmlns:svg="http://www.w3.org/2000/svg"
   xmlns="http://www.w3.org/2000/svg"
   xmlns:sodipodi="http://sodipodi.sourceforge.net/DTD/sodipodi-0.dtd"
   xmlns:inkscape="http://www.inkscape.org/namespaces/inkscape"
   sodipodi:docname="Ninho.svg"
   inkscape:version="1.0 (4035a4fb49, 2020-05-01)"
   id="svg8"
   version="1.1"
   viewBox="0 0 500.00031 497.68692"
   height="497.68692mm"
   width="500.00031mm">
  <defs
     id="defs2" />
  <sodipodi:namedview
     fit-margin-bottom="0"
     fit-margin-right="0"
     fit-margin-left="0"
     fit-margin-top="0"
     inkscape:window-maximized="1"
     inkscape:window-y="-11"
     inkscape:window-x="-11"
     inkscape:window-height="986"
     inkscape:window-width="1920"
     showgrid="false"
     inkscape:document-rotation="0"
     inkscape:current-layer="layer1"
     inkscape:document-units="mm"
     inkscape:cy="408.897"
     inkscape:cx="2506.7862"
     inkscape:zoom="0.16789976"
     inkscape:pageshadow="2"
     inkscape:pageopacity="0.0"
     borderopacity="1.0"
     bordercolor="#666666"
     pagecolor="#ffffff"
     id="base" />
  <metadata
     id="metadata5">
    <rdf:RDF>
      <cc:Work
         rdf:about="">
        <dc:format>image/svg+xml</dc:format>
        <dc:type
           rdf:resource="http://purl.org/dc/dcmitype/StillImage" />
        <dc:title></dc:title>
      </cc:Work>
    </rdf:RDF>
  </metadata>
  <g
     transform="translate(-50.251671,-70.305799)"
     id="layer1"
     inkscape:groupmode="layer"
     inkscape:label="Calque 1">
    <path
       d="m 380.45549,183.95597 v 214.50698 h 24.11127 v -91.47647 h 22.07526 v 91.47647 h 24.11127 V 183.95597 h -24.11127 v 91.47647 h -22.07526 v -91.47647 z"
       style="opacity:1;fill:#ffffff;stroke-width:45.3727;stroke-linecap:round;stroke-linejoin:round;stroke-dashoffset:131.528;paint-order:stroke fill markers"
       id="rect28" />
    <path
       d="m 272.15597,183.95597 v 214.50698 h 24.11127 V 282.13653 l 22.493,116.32642 h 24.11127 V 183.95597 h -24.11127 v 118.80054 l -22.493,-118.80054 z"
       style="opacity:1;fill:#ffffff;stroke-width:45.3727;stroke-linecap:round;stroke-linejoin:round;stroke-dashoffset:131.528;paint-order:stroke fill markers"
       id="rect28-2-8" />
    <path
       sodipodi:nodetypes="ssccccsssccccssccccccc"
       d="m 514.98381,180.40355 c -19.47817,-3e-5 -35.26948,14.40951 -35.26948,35.97758 0,0.23107 0.0136,0.46045 0.017,0.69112 h -0.017 c 0,-0.69112 -0.003,148.41026 -0.003,148.41026 h 0.0169 c -0.003,0.23059 -0.0153,0.46003 -0.0153,0.69113 0,21.56807 15.79133,35.97761 35.26946,35.97757 19.47814,0 35.26778,-14.4095 35.26778,-35.97757 0,-0.2311 -0.0116,-0.46054 -0.0153,-0.69113 h 0.0136 V 217.07225 h -0.0134 c 0.003,-0.23058 0.0169,-0.46011 0.0169,-0.69112 0,-21.56807 -15.78964,-35.97758 -35.26777,-35.97758 z m -0.002,30.24141 c 6.16129,6.6e-4 11.15584,4.99518 11.1565,11.15649 v 138.95187 c -6.5e-4,6.16129 -4.9952,11.15585 -11.1565,11.15649 -6.16195,2.9e-4 -11.15585,-4.99453 -11.1565,-11.15649 V 221.80145 c 6.6e-4,-6.16197 4.99453,-11.15675 11.1565,-11.15649 z"
       style="opacity:1;fill:#ffffff;stroke-width:15.4692;stroke-linecap:round;stroke-linejoin:round;stroke-dashoffset:131.528;paint-order:stroke fill markers"
       id="rect115" />
    <path
       transform="matrix(0.26458333,0,0,0.26458333,50.251671,70.305799)"
       d="M 301.03711 0 C 299.64564 -0.0056692913 298.41955 0.49945912 297.98438 1.6445312 C 296.26923 6.1593546 298.24056 15.560779 297.4043 18.201172 C 297.2089 18.818301 297.28436 19.612725 297.05078 20.228516 C 296.02233 22.935489 294.47557 25.700137 294.14062 28.873047 C 293.77325 32.354853 294.93252 36.025401 294.375 39.548828 C 294.12933 41.099576 294.07954 42.779375 293.79102 44.148438 C 293.5015 45.520058 292.68714 46.943453 292.39453 48.560547 C 291.9863 50.818493 292.81223 55.329037 292.27539 57.025391 C 291.38527 59.837102 288.60307 61.82196 287.73242 64.572266 C 286.83947 67.39304 290.57423 71.703355 291.3457 74.140625 C 291.76523 75.466578 291.23301 79.461207 290.87891 80.578125 C 290.72508 81.066338 289.76106 82.187933 289.5957 82.970703 C 289.36818 84.049966 288.53854 86.659085 287.84961 87.203125 C 286.44555 88.712959 286.13451 91.522083 285.93359 94.0625 C 285.74235 96.478843 286.5324 98.712565 287.00586 100.95898 C 287.43544 102.9933 287.36432 106.65052 287.17383 108.76367 C 286.94819 111.25664 285.99587 114.49131 285.36133 116.83008 C 285.02722 118.06111 284.8816 119.48188 284.61719 120.73438 C 283.89809 124.14169 282.96467 127.43741 282.31055 130.88086 C 281.86358 133.23263 282.22852 137.32361 282.22852 139.85938 C 282.15406 145.35477 280.07061 150.20044 279.59375 155.47266 C 279.29668 158.75714 279.59416 162.43447 279.09961 165.61914 C 278.75567 167.81312 278.0592 169.92767 277.78125 172.12305 C 277.20846 176.64725 276.94375 181.37978 276.46484 185.91797 C 276.26075 187.85328 276.70862 189.97636 276.46484 191.89844 C 275.77036 197.38204 275.88274 203.11391 275.30859 208.55469 C 275.01757 211.31578 274.92373 219.47182 275.47656 222.08789 C 275.76343 223.44754 276.30504 226.48055 275.9707 228.06641 C 275.42539 230.64952 274.70477 231.88573 274.32031 234.31445 C 273.72341 238.08623 277.29447 243.10256 276.29883 250.96484 C 275.74554 255.33213 274.79812 259.70861 274.32031 264.23633 C 273.81718 269.00518 274.16723 273.78147 273.66406 278.55078 C 273.53291 279.78491 272.99935 280.91826 272.83789 282.19336 C 272.63531 283.79388 272.8383 285.53353 272.67578 287.13477 C 272.35603 290.16912 271.28404 292.94431 270.69727 295.72461 C 270.00512 299.00414 270.86328 302.83486 270.86328 306.13477 C 271.36516 318.09659 271.36498 330.18891 270.53125 342.04102 C 269.96455 350.09235 270.86328 358.43875 270.86328 366.50195 C 270.86328 369.53854 270.68306 381.87551 269.875 383.15234 C 269.14275 384.30861 270.08023 390.90406 269.875 392.52344 C 269.51179 395.39062 268.49933 397.82824 268.22656 400.8457 C 267.62233 407.52621 268.44523 414.2926 267.40234 420.88281 C 266.76931 424.8828 267.40398 435.23226 268.06445 439.35742 C 268.43787 441.71691 269.2906 444.09136 268.88672 446.64258 C 268.56092 448.69891 267.66967 451.03592 267.40234 453.14648 C 267.15252 455.11637 267.40234 457.66973 267.40234 459.65625 C 267.18086 461.1486 267.24852 462.61033 267.40234 464.08008 C 267.60304 465.98016 268.37733 468.59512 268.0625 470.58398 C 267.91207 471.53658 267.4882 472.13324 267.23633 472.92773 C 266.37626 475.64438 265.76521 482.89511 266.08594 485.93555 C 266.58782 490.68891 269.68077 495.5153 269.04883 500.50586 C 268.62866 503.82311 267.42156 506.91646 266.74219 510.13477 C 265.85608 514.33397 266.1349 519.01122 265.26172 523.14844 C 264.31548 527.63251 263.17891 532.03708 262.79102 536.9375 C 262.38143 542.1156 263.40388 547.20536 264.27344 552.03125 C 264.41668 552.82858 264.19029 553.80957 264.27344 554.63086 C 264.52856 557.04696 265.17777 559.30377 265.42578 561.6543 C 265.75384 564.76307 265.50739 569.22191 265.26172 572.32422 C 264.96276 576.1062 264.32674 580.31412 263.45117 583.77148 C 263.24972 584.5676 263.55813 585.79761 263.45117 586.63867 C 262.82422 591.58974 262.01559 599.53567 263.45117 604.07031 C 263.87818 606.17819 264.32677 608.22949 264.76758 610.31836 C 265.79629 615.19206 266.76856 619.23621 266.08594 624.62695 C 265.39863 630.05594 262.23457 635.70115 263.7793 641.80078 C 265.27864 647.72096 268.34328 661.95996 267.56836 668.08008 C 267.17431 671.19018 266.08393 673.81813 265.5918 676.92773 C 264.48421 683.92383 264.27355 692.53084 264.27344 700.08789 C 265.25982 711.89657 263.36437 724.77578 264.10742 736.51953 C 264.60995 744.45711 265.6921 752.51049 266.9082 760.19336 C 267.68705 765.11378 267.11425 770.78663 267.56836 775.80664 C 267.76565 777.98951 267.99191 788.522 267.40234 790.38281 C 266.98357 791.70576 266.08514 795.33651 266.41211 796.88672 C 266.53797 797.47791 267.17383 797.52389 267.40234 797.66797 C 267.67938 797.84296 267.68587 798.79218 267.73047 798.9668 C 267.85746 799.46732 268.36649 799.81861 268.55664 800.26758 C 269.23178 801.86673 271.08098 813.41318 270.36914 815.09961 C 269.95967 816.06959 268.82321 816.57897 268.0625 817.17969 C 266.56104 818.36453 264.32947 818.83771 263.11719 816.92383 C 262.79328 816.41212 262.80185 814.67937 262.46094 814.32031 C 260.60715 812.36845 258.17578 803.08919 258.17578 798.96875 C 256.70286 792.2619 254.10323 786.20686 251.9707 780.3125 C 250.80192 777.08206 247.55163 770.02367 245.91211 767.06445 C 244.95619 765.33936 243.67734 764.16319 242.88281 762.28125 C 242.46056 761.28024 240.25602 756.32776 240.08594 755.65625 C 239.83233 754.6552 240.20283 753.62844 239.62305 752.71289 C 238.9309 751.61872 237.29566 748.33655 237.05664 746.82617 C 236.73538 744.79547 235.883 743.04984 235.66016 740.9375 C 235.01038 734.78235 234.07383 728.33544 233.09766 722.16797 C 232.09192 715.81424 229.59558 710.00702 227.73828 704.14062 C 226.87587 701.41611 226.19591 697.94662 224.94141 695.30469 C 223.91727 693.14828 223.01304 690.95752 222.14844 688.68164 C 221.14853 686.0492 217.45731 683.22143 215.85547 681.32422 C 213.73924 678.81745 207.2964 666.43396 206.06836 662.55469 C 203.32038 653.87462 201.21809 643.81515 199.54883 634.58789 C 198.89644 630.98147 198.86834 626.45971 197.68164 623.17969 C 195.26123 616.48939 193.1796 608.22729 190.92383 601.10156 C 189.555 596.77767 186.36823 592.53948 185.56836 587.48633 C 184.54002 580.99023 182.81168 573.99685 180.9082 567.98438 C 178.59067 555.55498 174.63997 544.3339 168.09375 537.44141 C 164.4061 533.55828 164.77192 538.08164 160.17188 530.81641 C 158.90798 528.8201 155.38989 513.53075 156.20898 510.94336 C 157.32339 507.4233 158.79815 502.77543 157.60547 498.06641 C 155.18858 488.52321 151.68354 478.22933 147.82031 470.09375 C 147.0575 468.48738 141.60729 463.34794 140.36523 462.36719 C 136.67444 459.45219 132.40935 458.66403 128.7168 455.74805 C 128.59098 455.64865 127.61312 453.97366 127.55078 453.9082 C 126.02014 452.29639 116.96505 446.13823 115.20508 445.44336 C 114.14991 445.02606 113.61806 443.11875 112.63867 442.5 C 108.29511 439.75603 103.16157 442.80305 98.658203 441.02539 C 97.955128 440.74835 97.948572 439.66212 97.494141 439.18359 C 96.504672 438.14158 94.656399 438.02453 93.765625 436.61133 C 91.877003 433.62837 89.868826 431.13901 87.476562 429.25 C 86.666186 428.60914 85.751553 429.6691 85.146484 429.98828 C 82.196718 431.54136 79.529524 435.17385 77.457031 438.44727 C 77.030787 439.12044 77.276311 441.31045 76.757812 442.12891 C 76.578587 442.41199 75.957785 442.61819 75.828125 443.23047 C 75.008058 447.1162 74.239162 450.52493 72.564453 453.16992 C 71.779041 454.40938 65.664558 454.7751 64.701172 453.25781 C 64.40138 452.78462 63.232662 451.25869 62.837891 451.05078 C 58.014083 448.51135 56.929282 439.08336 54.214844 432.65234 C 53.57983 430.56971 51.394082 426.43509 49.669922 429.1582 C 49.358073 429.65003 49.552163 429.71228 49.207031 430.07617 C 48.797557 430.5059 48.163439 430.9791 47.923828 431.73633 C 47.128975 434.24695 47.841976 439.47705 48.451172 441.40234 C 49.081465 443.39344 49.487121 447.9071 49.148438 450.04688 C 49.027984 450.80323 48.543449 451.34459 48.451172 452.07227 C 48.170844 454.28843 48.590264 456.71214 47.751953 458.69727 C 46.505461 461.65017 43.66044 460.39251 41.8125 460.7168 C 39.016976 461.20738 36.466635 465.98812 35.636719 469.91992 C 34.695809 474.37803 37.044831 479.50275 37.617188 483.7207 C 37.773055 484.86703 37.650239 486.279 37.849609 487.40039 C 39.033444 493.94487 38.192035 496.90609 35.984375 502.48438 C 35.154621 504.58141 34.434187 506.82695 33.423828 508.74219 C 32.424177 510.63641 31.170136 512.7487 30.277344 514.62891 C 29.905249 515.41134 28.90338 516.11325 28.412109 516.65625 C 26.144639 519.1634 22.703954 523.91827 19.675781 522.72266 C 17.228118 521.75517 16.621098 516.7673 14.083984 516.09961 C 12.162971 515.59289 12.073232 517.53062 11.636719 519.59961 C 10.698791 525.12781 14.381083 532.57102 14.097656 538.11328 C 13.985896 539.71418 12.92991 542.71618 12.451172 544.22852 C 11.976743 545.7263 11.718213 547.42361 11.214844 548.91406 C 8.8048469 554.8401 4.0956898 569.57088 5.9316406 576.82031 C 9.1206094 589.41177 12.462876 606.17345 10.587891 620.98047 C 9.8691681 626.65547 7.8571759 631.52479 7.0957031 637.53711 C 6.9311425 638.83001 7.2977567 640.30624 7.0957031 641.58398 C 6.8821976 642.93025 6.0837817 644.42939 5.9316406 645.63086 C 5.2269515 651.1961 4.8564078 659.00289 5.4648438 664.76758 C 5.7484973 667.45777 8.3000389 681.02196 8.9589844 682.0625 C 9.7138505 683.25475 8.2617188 686.96446 8.2617188 687.95508 C 8.2617188 689.76955 7.5619343 691.63323 7.0957031 693.10547 C 6.2447123 695.79381 7.3180135 701.86165 7.7949219 704.14062 C 8.1549597 705.84697 4.1537108 719.45891 3.5996094 720.33398 C 2.6569612 721.82285 7.0262397 732.89961 7.5585938 735.42188 C 8.3462435 739.15299 6.2502794 742.36014 5.6953125 744.99023 C 6.3598819 761.9015 7.916357 779.14437 6.6289062 795.4082 C 5.8586423 805.1392 6.9652557 814.99917 5.4648438 824.47656 C 4.8426201 828.40799 3.1555211 830.17873 2.6660156 834.04492 C 2.3942676 836.18829 2.4172918 856.46177 2.4355469 856.49023 C 3.3088936 857.86965 5.3362876 858.43754 5.6953125 861.27344 C 6.4745188 867.42587 3.8320312 874.14448 3.8320312 880.78125 C 3.5822801 892.25011 4.795307 904.22902 4.0664062 915.73828 C 3.6851237 921.76103 3.6744301 927.79133 3.1328125 933.77148 C 2.7166298 938.37404 3.4751312 943.22926 2.9023438 947.75195 C 2.5021863 950.91088 3.3961504 954.56877 2.9023438 957.68945 C 2.3502946 961.17837 -0.58586731 975.37854 0.10546875 977.5625 C 0.55915568 978.99524 2.1841592 979.31677 2.4355469 980.50781 C 3.411727 985.13339 1.6808969 991.29205 2.6660156 995.96094 C 3.7230474 1000.9704 5.5238826 1011.1337 4.2988281 1016.9375 C 3.831104 1019.1527 3.5721007 1043.2994 4.0664062 1045.6406 C 4.5106557 1047.7465 5.7094341 1048.6022 6.6289062 1050.0547 C 7.2539872 1051.042 7.2205168 1053.925 7.7949219 1054.8379 C 9.0908463 1056.8846 6.6289062 1068.3647 6.6289062 1069.5566 C 7.1748741 1071.2925 7.6618243 1072.9164 7.09375 1074.7109 C 6.1472543 1077.7006 1.7450486 1091.294 2.9023438 1094.9492 C 4.2384294 1099.1695 4.8757364 1108.7755 3.8320312 1113.7207 C 1.8060571 1123.3203 1.5661823 1135.4569 3.1347656 1145.3672 C 3.4037546 1147.0668 2.7848948 1149.2262 3.1347656 1150.8828 C 4.152925 1155.707 6.632193 1159.0031 7.328125 1164.498 C 7.8138548 1168.3362 7.328125 1173.0805 7.328125 1177.0137 C 7.328125 1184.0987 7.5605469 1191.2181 7.5605469 1198.3555 C 7.5605469 1200.6632 7.0741935 1204.8822 7.5605469 1207.1875 C 7.7940461 1208.2941 8.7753899 1209.8389 9.1914062 1210.4961 C 10.605566 1212.7295 10.571882 1216.711 11.521484 1218.9609 C 12.231635 1220.6435 13.647264 1222.7787 14.083984 1224.8477 C 15.163247 1229.9608 13.832995 1246.2784 12.919922 1250.6074 C 11.792349 1253.1019 12.037822 1256.7713 11.287109 1259.4395 C 10.961957 1260.5945 10.229266 1261.3551 10.007812 1262.7539 C 9.7354597 1264.4957 9.6960751 1266.3701 9.4238281 1268.0898 C 9.1313683 1269.9349 8.2760669 1271.6976 8.6074219 1273.791 C 8.7880077 1274.9299 10.034699 1275.5355 10.357422 1276.5547 C 11.084093 1278.8501 12.260731 1283.1256 12.570312 1285.5703 C 13.234016 1290.8141 12.243528 1296.4771 12.800781 1301.7617 C 13.242419 1305.9472 14.193511 1309.8535 14.433594 1314.0879 C 14.742079 1319.4534 12.636567 1324.4556 13.5 1329.9102 C 13.606809 1330.5808 15.68993 1333.6742 14.900391 1336.168 C 13.606469 1340.2555 12.800781 1339.6207 12.800781 1344.6328 C 12.801314 1345.491 12.800781 1346.3464 12.800781 1347.2051 C 12.800781 1348.3129 12.72423 1349.445 12.917969 1350.5195 C 13.421088 1353.2998 15.206289 1355.924 14.664062 1359.3496 C 14.333581 1361.4389 13.992279 1361.6673 13.501953 1363.2168 C 12.971266 1364.8937 12.617992 1367.036 12.220703 1368.918 C 11.549176 1372.1166 13.395562 1375.2378 13.851562 1378.1191 C 14.25172 1380.6484 12.809225 1382.8268 12.568359 1385.1094 C 12.168202 1388.9019 12.800781 1393.0704 12.800781 1396.8848 C 12.779616 1400.5694 13.406868 1404.1194 13.734375 1407.7402 C 14.279719 1413.7683 13.427688 1420.0951 13.851562 1426.1387 C 14.099688 1429.664 14.793438 1433.1204 15.015625 1436.6309 C 15.293345 1441.0142 15.015625 1445.6499 15.015625 1450.0586 C 15.015625 1452.1751 15.279171 1454.7875 15.015625 1456.8691 C 14.842258 1458.2373 14.645645 1459.5595 14.431641 1460.916 C 14.347206 1461.4774 14.241165 1461.2182 13.964844 1461.6543 C 13.744157 1462.002 13.919317 1462.1289 13.853516 1462.5723 C 13.800111 1462.9249 13.376586 1463.1409 13.269531 1463.3086 C 12.611043 1464.3481 12.453125 1466.3417 12.453125 1467.9082 C 12.453125 1468.2 12.366196 1468.9939 12.453125 1469.1973 C 13.34622 1471.3129 16.469296 1473.309 16.646484 1474.166 C 17.07819 1476.2115 16.61916 1479.056 17.230469 1480.9707 C 17.953908 1483.2557 18.973515 1484.3215 19.443359 1487.043 C 19.719076 1488.6415 19.139281 1491.2316 19.560547 1492.5645 C 19.410008 1496.327 18.691975 1500.356 19.09375 1504.1582 C 19.2777 1505.8992 20.202002 1507.3341 20.609375 1508.9434 C 21.555376 1512.6777 21.878254 1515.976 22.240234 1519.9785 C 22.352033 1521.2224 22.883502 1524.6035 22.472656 1525.6855 C 22.038468 1526.8281 21.883654 1527.9042 21.306641 1528.8105 C 19.336396 1531.9222 18.860869 1529.6632 17.927734 1535.0684 C 17.835816 1535.5987 17.69439 1536.3536 17.8125 1536.9082 C 17.984506 1537.7217 18.412131 1538.3088 18.746094 1538.748 C 21.727578 1542.6723 23.171875 1543.6327 23.171875 1550.1582 C 23.139749 1551.8871 22.825355 1554.2831 22.238281 1555.6738 C 22.038836 1556.1458 21.456972 1556.5392 21.189453 1556.9609 C 19.195189 1560.1105 17.76485 1562.6444 18.396484 1567.6328 C 18.541656 1568.7742 19.23917 1569.3356 19.675781 1570.0254 C 21.538053 1572.9664 23.200268 1576.0598 22.589844 1580.8809 C 22.150315 1584.3514 18.129105 1585.5134 19.09375 1590.084 C 19.329366 1591.1992 19.925304 1591.5939 20.259766 1592.4746 C 21.654993 1596.1476 22.62839 1598.5379 22.939453 1602.9609 C 23.224467 1607.0172 22.814417 1611.5671 22.238281 1615.4727 C 21.110209 1623.1127 18.969362 1627.196 18.396484 1632.4023 C 18.349278 1632.8233 18.17575 1633.2111 18.277344 1633.6914 C 18.92043 1636.7388 20.084086 1636.9593 20.839844 1639.9434 C 21.565645 1642.8093 20.709132 1648.5791 20.957031 1651.7188 C 21.126921 1653.8623 21.509186 1656.105 21.306641 1658.3418 C 19.906345 1666.5953 18.316524 1674.7269 21.306641 1684.4727 C 21.464511 1684.9682 22.524671 1685.8342 22.703125 1686.6797 C 23.567284 1690.7743 24.669903 1694.8512 25.265625 1699.5566 C 26.140831 1706.468 24.296659 1722.9284 25.5 1728.6328 C 26.644713 1734.057 28.319611 1738.7119 29.228516 1744.4531 C 30.394095 1751.8173 27.936371 1760.7922 29.458984 1768.0078 C 30.752773 1774.1376 28.64979 1786.9818 29.925781 1793.0293 C 30.269076 1794.6571 30.671534 1795.7057 30.855469 1797.4473 C 31.011336 1798.9186 30.429849 1801.6191 30.855469 1802.9629 C 33.135979 1810.1665 35.422914 1815.9868 36.681641 1823.9395 C 37.663407 1830.1419 34.746893 1830.1755 34.121094 1833.1406 C 33.564324 1835.7779 35.517578 1842.8181 35.517578 1846.3906 C 35.517578 1850.0053 33.708704 1865.2294 34.646484 1868.1914 C 35.97317 1870.8313 34.743484 1875.194 35.751953 1877.8516 C 36.184898 1878.9904 36.767143 1879.3877 37.498047 1879.9648 C 37.921554 1880.3001 38.181065 1880.6713 38.664062 1880.8887 C 39.750903 1881.3805 41.643857 1880.4205 42.568359 1879.5059 C 43.127616 1878.9532 43.509162 1878.0628 43.847656 1877.207 C 44.648349 1875.1834 44.162601 1871.6734 43.962891 1869.4785 C 43.770135 1867.3443 43.932414 1864.8117 44.025391 1862.6699 C 44.099923 1860.896 43.985364 1859.1045 44.085938 1857.334 C 44.195241 1855.4263 44.388828 1854.1219 44.957031 1852.5508 C 45.258827 1851.7174 45.803416 1851.2504 45.949219 1850.252 C 46.39086 1847.2283 46.78955 1843.9373 46.589844 1840.7754 C 46.512855 1839.5806 46.416016 1838.2904 46.416016 1837.0957 C 46.83083 1826.1159 46.632812 1814.9545 46.632812 1803.9023 C 46.632812 1802.91 45.729666 1798.8255 46.304688 1797.918 C 47.197159 1796.5081 48.272958 1794.8691 49.433594 1793.4941 C 51.24714 1791.3459 54.359253 1792.224 55.861328 1789.8516 C 56.769575 1788.4171 56.078984 1773.1454 56.357422 1770.0703 C 56.754227 1765.6799 57.932315 1766.5725 59.486328 1764.6094 C 60.598749 1763.204 61.280102 1759.3497 61.792969 1757.3242 C 62.190394 1755.7543 61.792969 1752.505 61.792969 1750.8145 C 61.792969 1744.7953 62.604921 1737.6909 61.958984 1731.5645 C 61.677183 1728.8934 61.263911 1725.325 61.626953 1722.4551 C 62.759371 1713.5133 62.505437 1710.4835 65.910156 1702.418 C 66.256777 1701.5971 65.965009 1700.4209 66.240234 1699.5566 C 67.13904 1696.7175 67.632471 1693.3356 68.546875 1690.4473 C 68.916248 1683.1334 75.963666 1667.8203 74.478516 1660.7832 C 73.238048 1654.9049 70.605748 1653.5023 71.841797 1645.6934 C 72.310885 1642.7309 74.471104 1641.0215 75.630859 1639.1895 C 76.863753 1637.2421 77.069942 1634.1989 77.609375 1631.6426 C 78.008168 1629.7533 77.381305 1626.8075 76.785156 1625.3945 C 76.567682 1624.8804 75.803614 1624.9026 75.630859 1624.3574 C 74.960696 1622.2405 76.458569 1618.3598 77.113281 1616.8086 C 77.739477 1615.3253 77.135738 1612.0242 77.28125 1610.3047 C 77.507304 1607.8045 77.198767 1597.549 77.609375 1596.2539 C 77.844991 1595.5087 78.103516 1595.3942 78.103516 1594.4297 C 78.103516 1592.409 79.993918 1589.3492 81.070312 1591.0488 C 82.893421 1593.9286 82.222656 1600.2959 82.222656 1604.582 C 82.222656 1609.8201 83.128129 1622.5433 82.388672 1627.2188 C 81.992487 1629.7219 81.534121 1637.5304 82.222656 1639.707 C 82.78477 1641.482 84.026877 1642.1097 84.695312 1643.8691 C 85.044692 1644.7969 85.028738 1645.9586 85.517578 1646.7305 C 86.520582 1648.3144 87.763718 1656.8079 87 1659.2207 C 86.050772 1662.2189 79.796316 1665.8539 79.587891 1666.5117 C 79.064033 1668.1662 77.844031 1669.294 77.443359 1671.1914 C 77.212619 1672.2868 77.621451 1673.7107 77.443359 1674.834 C 77.190358 1676.4337 76.7067 1677.9296 76.455078 1679.5195 C 76.236999 1680.8981 76.600287 1682.2441 76.787109 1683.4238 C 77.347976 1686.9681 80.345074 1686.4693 82.222656 1684.9863 C 83.001613 1684.3703 83.426967 1683.0767 84.033203 1682.1191 C 84.391124 1681.5528 85.694768 1682.6619 85.845703 1682.9004 C 86.480093 1683.9026 86.011719 1689.2455 86.011719 1690.709 C 85.724097 1691.5734 85.258104 1692.3411 85.148438 1693.3027 C 84.589185 1698.214 85.378906 1706.7392 85.378906 1712.0684 C 85.378906 1716.6214 84.650655 1721.7052 85.148438 1726.4199 C 85.669812 1731.3626 86.734185 1738.5636 86.082031 1743.7148 C 85.64039 1747.2018 84.257755 1755.2636 85.378906 1758.8047 C 87.055293 1764.1005 85.720157 1766.9023 90.738281 1766.9023 C 91.032744 1766.9023 92.632345 1767.2266 92.837891 1766.9023 C 94.17271 1764.7939 94.003906 1756.4129 94.003906 1753.2832 C 94.003906 1749.4207 93.186572 1739.2159 94.003906 1735.9883 C 94.803106 1732.8328 94.933594 1730.2766 94.933594 1726.791 C 94.933594 1723.731 93.873652 1713.2125 94.701172 1710.5996 C 95.352827 1708.5407 97.318477 1707.3931 97.962891 1704.3398 C 98.961181 1699.6101 96.311883 1695.677 95.867188 1691.4629 C 95.556813 1688.5231 95.769997 1671.4076 96.099609 1668.2812 C 96.658367 1662.9878 96.596241 1657.358 97.263672 1652.0879 C 97.467842 1650.4742 98.111497 1648.8121 98.429688 1647.3047 C 99.749294 1641.0521 100.29297 1633.1124 100.29297 1625.9629 C 100.43085 1616.412 97.465524 1582.5888 101.22656 1576.6484 C 101.34951 1576.4583 101.95915 1576.6484 102.15625 1576.6484 C 104.37713 1576.6484 103.78906 1580.3533 103.78906 1583.2734 C 103.78906 1591.1354 103.30163 1602.0092 106.35156 1606.8262 C 107.98153 1609.4005 105.2224 1617.498 110.07812 1617.498 C 110.40252 1617.498 111.25491 1617.6719 111.47461 1617.498 C 114.00303 1615.5015 113.35091 1606.1454 112.64062 1602.7793 C 112.45184 1601.8839 112.64062 1599.5741 112.64062 1598.7285 C 112.64062 1597.5176 112.38641 1595.1482 112.64062 1593.9434 C 113.12238 1591.659 116.36719 1591.8121 116.36719 1589.1602 C 116.36719 1584.7175 114.66408 1584.9458 113.33789 1581.8047 C 113.04082 1581.1017 112.82978 1578.6479 112.64062 1577.752 C 112.09068 1575.1455 112.98691 1552.1788 113.33789 1551.625 C 113.69793 1551.0562 113.10742 1545.1478 113.10742 1542.7949 C 113.10742 1540.288 109.52696 1534.0998 110.77734 1532.125 C 113.59347 1527.6772 117.4441 1546.9142 118 1548.6816 C 118.58944 1550.5436 119.07821 1553.6936 120.09961 1555.3066 C 120.56994 1556.0493 122.16611 1557.0528 122.42578 1557.8848 C 123.39103 1560.9333 124.4047 1562.8461 125.68945 1564.875 C 126.37464 1565.9567 123.82617 1568.7426 123.82617 1570.3965 C 123.82617 1573.6979 127.06969 1577.7838 126.38867 1578.8594 C 126.10763 1579.3028 125.69167 1580.6923 125.45508 1581.0664 C 125.33708 1581.2501 124.35668 1581.1285 124.29297 1581.4316 C 123.45117 1585.419 123.82617 1591.4135 123.82617 1596.1543 C 126.81802 1599.7609 124.23402 1608.8568 125.45508 1612.7129 C 125.84841 1613.9552 126.90776 1616.2235 126.38867 1617.8633 C 125.78036 1619.7847 122.91665 1621.6265 124.28906 1625.9609 C 125.15173 1628.6861 131.31122 1635.0623 132.67773 1630.7461 C 133.39993 1628.465 132.22828 1624.8065 132.91211 1622.6465 C 133.71802 1620.1006 137.33984 1622.6961 137.33984 1614.1816 C 137.33984 1607.5673 133.28833 1604.935 132.21094 1599.8301 C 131.48116 1596.3722 132.0481 1593.0544 131.04883 1589.8965 C 130.54248 1588.2974 132.41078 1585.6969 132.67773 1584.0098 C 133.14546 1581.0549 131.72903 1576.7093 132.44727 1574.4414 C 132.85351 1573.1588 134.23088 1573.4647 134.77734 1572.6016 C 136.44537 1569.9672 136.00704 1561.6124 135.47461 1558.25 C 133.00059 1542.6188 126.99468 1525.2782 135.47461 1511.8848 C 140.33159 1503.584 131.15973 1493.4938 133.37695 1486.4902 C 136.80325 1475.6672 135.33457 1467.0623 133.14453 1456.6836 C 132.69432 1454.5509 135.26087 1449.7215 134.07812 1447.8535 C 133.4559 1446.8711 130.45474 1436.6796 130.81445 1434.9746 C 132.30477 1427.9134 135.92701 1426.0231 134.77734 1416.9434 C 134.53651 1415.041 133.52458 1414.6973 133.14453 1412.8965 C 131.71305 1406.1131 130.31055 1399.8861 131.51367 1392.2852 C 131.83013 1390.2857 133.33276 1382.6166 134.54102 1381.9805 C 136.14194 1381.1372 139.20392 1380.515 140.13672 1377.5684 C 142.97086 1368.6155 140.3742 1347.0537 138.50391 1338.1934 C 137.83759 1335.0358 137.80652 1321.8556 137.80664 1317.584 C 139.04736 1312.552 142.96864 1306.9358 141.5332 1300.1348 C 141.0897 1298.033 139.80488 1296.4276 139.39258 1294.1484 C 138.05384 1286.7474 138.31974 1279.6644 137.86523 1271.7695 C 137.6684 1268.3505 137.45903 1264.0053 137.69922 1260.5859 C 137.97021 1256.7294 139.22205 1252.8895 140.16992 1249.3965 C 141.61734 1244.0622 140.39348 1237.0842 140.05469 1231.1777 C 139.63714 1223.9192 138.01375 1216.7844 137.25391 1209.584 C 136.2704 1200.2289 136.43163 1190.6994 135.93164 1181.2188 C 135.74894 1177.7545 135.27539 1173.937 135.27539 1170.5527 C 135.67207 1165.8544 134.69458 1159.2994 135.70703 1155.3008 C 136.35471 1152.7427 137.94804 1152.5668 138.50586 1149.043 C 139.45385 1143.0535 135.93557 1143.4756 135.24414 1139.1074 C 134.55982 1134.785 134.77864 1129.924 134.31055 1125.4941 C 133.4634 1117.4653 133.85183 1105.5939 135.47656 1097.8926 C 135.8961 1095.9051 136.67382 1093.4728 136.87305 1091.2695 C 137.06183 1089.1863 136.89361 1087.0877 137.10742 1085.0156 C 137.83384 1078.1332 136.42345 1074.3608 135.62891 1068.0859 C 135.36861 1066.0325 135.41512 1063.8459 135.16016 1061.8281 C 134.61481 1057.5236 134.58799 1039.117 135.16016 1034.5996 C 135.88074 1028.9098 137.19811 1023.8827 137.72656 1018.041 C 138.65133 1007.8192 134.76669 984.21641 137.33984 976.08789 C 138.81468 958.75437 139.13676 940.41627 137.57031 923.09961 C 137.33942 920.54529 136.51071 912.83495 137.33984 910.2168 C 137.7071 909.05678 139.05273 907.39347 139.66992 906.90625 C 141.50221 905.45926 142.41089 898.00573 142 894.76172 C 141.46273 890.51644 140.03003 886.33486 138.9707 882.98828 C 137.67672 878.90136 139.98675 872.21872 138.73633 868.26953 C 136.29891 860.57026 136.7895 850.02061 138.03711 842.13867 C 138.49477 839.24862 141.68754 816.7808 141.76562 816.75 C 145.32882 815.34311 146.09239 821.79631 146.6582 824.47656 C 148.25382 828.90367 149.64152 833.16384 151.08594 837.72656 C 151.3214 838.46924 152.08094 839.12127 152.25195 839.93164 C 152.43998 840.82459 152.3512 842.01009 152.71484 842.875 C 155.58578 849.67656 157.12809 856.42887 159.00781 863.85156 C 159.73163 866.70945 161.02059 869.89955 162.03711 872.31641 C 162.91518 874.39654 162.8269 877.02496 163.43359 878.94141 C 164.55297 882.47727 165.9165 885.59634 167.16211 888.875 C 167.6774 890.23136 167.96904 893.96872 168.55859 895.13281 C 170.12023 898.21574 171.16961 902.23071 172.52148 905.43359 C 174.49984 910.12047 178.55377 911.97813 180.21094 917.21289 C 180.59371 918.42253 182.05065 925.03712 182.30664 925.30664 C 183.73727 926.81286 187.92267 939.73449 188.83008 942.60156 C 189.0852 943.40634 190.5685 944.78756 190.92578 945.91602 C 191.91587 949.04327 188.14883 949.48171 186.9668 948.85938 C 186.10351 948.40481 182.54435 942.96047 181.14062 945.17773 C 178.49365 949.35819 182.80625 959.95393 184.40234 962.47461 C 186.99219 968.66952 187.58443 976.6911 189.47656 982.67969 C 189.74226 983.52052 190.87893 984.12839 191.12305 985.28516 C 191.44015 986.78669 191.26751 988.63109 192.11133 989.96484 C 193.13025 991.57428 194.68774 993.74701 195.07812 996.21289 C 195.68818 1000.0682 196.99193 1004.8697 198.04102 1008.1836 C 199.96925 1014.2743 203.30727 1018.743 205.62109 1024.834 C 206.30205 1026.6265 206.22126 1028.1978 206.60938 1030.0391 C 207.14478 1032.5747 211.10887 1043.5608 212.21094 1046.1719 C 212.49062 1046.8351 213.32116 1047.2666 213.5293 1048.252 C 214.46798 1052.6995 215.12862 1056.4231 216.49609 1060.7422 C 217.27505 1063.2029 219.22936 1066.2591 220.11914 1069.0703 C 222.87891 1077.7874 225.0184 1086.1006 227.69922 1094.5684 C 228.04505 1095.6613 229.64071 1104.4022 229.67578 1104.457 C 233.24638 1110.0965 235.59138 1121.0497 237.25195 1128.918 C 238.94427 1136.9365 249.11505 1143.9565 249.11523 1145.0508 C 248.27406 1147.8615 247.77495 1151.8591 248.35938 1154.9355 C 248.47994 1155.569 248.77477 1156.1133 248.82617 1156.7695 C 248.97131 1158.5989 249.22611 1161.4499 250.10742 1162.8418 C 250.19057 1162.9722 250.34667 1162.7798 250.45703 1162.8418 C 250.53905 1162.8913 250.71442 1163.7987 250.80664 1163.9453 C 251.16796 1164.5166 251.9814 1165.0929 252.43555 1165.6055 C 252.66648 1165.87 253.38435 1166.7793 253.60156 1166.8945 C 254.95501 1167.6074 258.64537 1167.1626 259.6582 1168.3633 C 260.11923 1168.9085 260.08046 1169.8415 260.35742 1170.5703 C 260.704 1171.4831 261.45043 1172.482 261.87109 1173.1465 C 262.31534 1173.8482 263.31499 1173.8954 263.62109 1174.6211 C 264.78371 1177.3748 264.16016 1181.1186 264.4375 1184.1895 C 264.68922 1186.9693 265.71973 1189.1716 266.41406 1191.3652 C 267.15988 1193.7207 270.53205 1198.6019 271.77344 1200.5625 C 272.05426 1201.0071 271.95637 1201.8755 272.12305 1202.4023 C 272.94324 1204.9928 274.42664 1207.6079 275.50195 1209.9434 C 276.64866 1212.4334 278.56443 1214.4088 279.93164 1216.5684 C 281.67472 1219.3214 283.04206 1222.5896 284.82422 1225.4043 C 285.71966 1226.8186 286.10649 1228.8702 286.91992 1230.3691 C 288.47361 1233.2317 289.33381 1236.7009 290.29688 1240.123 C 290.92182 1242.3438 291.8225 1244.39 292.50977 1246.5605 C 294.14184 1247.5678 294.63003 1250.4209 295.65625 1252.4473 C 296.50634 1254.1254 297.41288 1255.7212 298.21875 1257.418 C 298.71255 1258.4575 298.2581 1257.8449 298.45312 1259.0723 C 298.61753 1260.1118 301.45973 1266.8408 302.06445 1268.2734 C 303.25973 1271.1056 303.9725 1275.0025 306.02539 1276.1816 C 312.16319 1279.7068 312.52678 1271.3866 313.48047 1263.8555 C 313.57609 1263.1016 313.96172 1262.5232 314.17969 1261.8359 C 316.08672 1255.8122 317.01118 1254.2891 321.40234 1254.2891 C 322.17707 1254.2891 323.30647 1253.9837 324.08203 1254.2891 C 326.99994 1255.4416 329.0292 1258.3966 331.53711 1260.7266 C 332.33036 1261.4643 333.33311 1261.8865 334.10156 1262.7539 C 334.64555 1263.3687 334.24898 1263.3301 334.91406 1263.8555 C 338.49093 1266.6802 342.48743 1268.949 345.86523 1272.5059 C 346.71385 1273.3988 348.0211 1274.7641 348.66211 1276.1816 C 349.81664 1278.7347 350.821 1282.6109 352.97461 1283.1777 C 354.44137 1283.5628 355.07429 1282.6228 356.23438 1281.5234 C 356.95917 1280.8354 358.11512 1280.4331 358.68359 1279.3105 C 359.25377 1278.1841 360.16711 1277.2887 360.89648 1276.3672 C 363.45677 1273.132 364.79323 1269.377 368.23438 1269.377 C 369.46779 1269.377 369.86084 1270.1269 371.03125 1270.8457 C 375.19652 1273.4041 380.27672 1275.8164 383.96289 1270.4805 C 385.98974 1267.546 386.92599 1262.7226 388.38867 1259.2578 C 388.78809 1258.3127 389.57167 1257.9122 389.90234 1256.8672 C 391.44904 1251.9815 393.96837 1247.409 392.93164 1240.8594 C 392.43524 1237.7221 386.79139 1230.3136 389.08594 1226.6895 C 389.72147 1225.6847 391.65774 1225.4182 392.34766 1226.5078 C 392.47049 1226.7002 392.45013 1227.0639 392.58203 1227.2402 C 394.18629 1229.3516 392.03909 1225.6466 393.39844 1227.793 C 394.01257 1228.7691 394.00966 1230.0362 394.32812 1231.293 C 394.91705 1233.6175 395.35759 1235.9787 395.84375 1238.2832 C 396.16161 1239.7886 396.03008 1241.5148 396.19336 1243.0664 C 396.71921 1248.0518 397.81261 1254.1356 400.9707 1256.1309 C 404.6929 1258.4825 406.40693 1253.0045 405.86328 1247.8516 C 405.78391 1247.0977 404.45073 1242.3536 405.04688 1241.4121 C 405.54067 1240.6322 406.37889 1240.2541 406.91211 1239.2012 C 407.90333 1237.2439 408.87717 1232.6791 408.42578 1230.1836 C 407.9239 1227.4093 405.98622 1223.2127 404.92969 1220.9883 C 403.9427 1218.9094 404.4624 1214.6533 404.46289 1212.1582 C 404.28147 1210.2537 404.69836 1208.1562 404.46289 1206.2695 C 404.10724 1203.4565 402.23566 1200.8451 402.7168 1197.8047 C 402.84379 1196.9987 404.13267 1195.7301 404.46289 1194.8613 C 405.72869 1191.5197 406.17195 1186.9416 405.62891 1183.082 C 405.41347 1181.5533 405.08088 1179.4772 404.46289 1178.2988 C 403.02164 1175.5673 400.98792 1175.03 401.55273 1170.5703 C 401.71941 1169.2587 402.34334 1167.891 402.7168 1166.7109 C 404.01253 1162.618 404.41605 1158.061 404 1153.4609 C 403.6829 1149.9565 401.47402 1147.3674 400.73633 1144.2598 C 399.50715 1139.0828 399.57031 1133.5513 399.57031 1128.0723 L 399.57031 1120.8965 C 399.57031 1119.8992 398.93789 1109.5722 399.33984 1108.9375 C 399.53865 1108.6246 400.12378 1108.4297 400.38672 1108.0137 C 401.92673 1105.5813 401.78151 1101.5119 401.55273 1098.2598 C 401.18952 1093.0945 398.38819 1088.9574 398.99023 1083.7285 C 399.33001 1080.7765 401.78164 1078.5971 402.25 1074.8984 C 402.67626 1071.5079 401.40624 1070.4205 400.27344 1068.2734 C 399.78312 1067.3432 399.80794 1065.9016 399.68945 1064.7734 C 399.39049 1061.9367 400.74512 1059.7614 401.20312 1057.2305 C 402.0765 1052.403 401.66992 1046.81 401.66992 1041.7754 C 400.91927 1039.3538 401.3488 1036.723 401.08594 1034.2344 C 400.6858 1030.4457 400.12702 1025.2647 400.62305 1021.3516 C 401.29569 1016.0392 402.70832 1006.2216 401.55273 1000.7461 C 400.50599 995.78645 399.87972 987.60175 400.38867 981.97656 C 400.58332 979.82412 401.09708 977.85679 401.32227 975.72461 C 401.82748 970.93625 401.3433 964.90365 400.85352 960.26953 C 400.27676 954.80467 400.88875 948.87092 400.62305 943.33984 C 400.21879 935.04654 397.63029 928.55544 396.66016 920.89453 C 396.26002 917.73349 396.74688 913.96249 397.12695 910.95508 C 397.49432 908.05546 396.76962 902.88873 397.59375 900.2832 C 398.88329 896.2097 399.22266 891.59727 399.22266 887.03516 C 398.73691 877.25548 389.52623 887.74486 387.5918 877.56055 C 387.34575 876.26356 387.09828 874.21953 387.3418 872.875 C 387.95072 869.51114 392.30507 868.77605 392.78125 863.50977 C 393.13048 859.64977 390.82513 856.80096 390.0625 853.48828 C 389.73255 852.05444 389.73047 850.43448 389.73047 848.93359 C 389.73047 844.04175 391.34342 843.14197 393.93164 841.7793 C 397.17281 838.86192 400.0155 832.30723 398.40625 825.95312 C 397.53053 822.4961 394.95718 820.44 395.49414 816.19922 C 395.68841 814.66613 396.71406 813.91957 397.35938 813.07031 C 398.41269 811.68391 399.09645 807.82563 398.87305 805.70898 C 398.81976 805.22214 397.11391 804.08601 396.77734 803.6875 C 395.12138 801.72604 391.88321 797.97016 391.53516 794.67188 C 391.39531 793.34458 392.21576 790.09475 392.81641 789.33594 C 392.8697 789.27395 393.32548 789.12718 393.40039 788.9707 C 394.30056 787.06726 395.28521 783.73376 395.49414 781.42383 C 395.88835 777.07027 395.33959 770.87378 394.33008 766.88672 C 393.77679 764.70196 394.28294 761.66661 393.86719 759.34375 C 393.64911 758.13906 393.07942 757.5987 392.81641 756.76758 C 392.19876 754.81598 394.48955 751.43065 394.68359 749.5918 C 394.848 748.02783 394.91406 746.4335 394.91406 744.80664 C 395.07507 741.30941 394.56098 737.62833 393.86328 734.32227 C 392.47805 727.75862 387.67049 725.05199 385.82812 719.23242 C 385.62819 718.59901 385.75932 718.04957 385.71094 717.39258 C 385.64253 716.58032 385.30858 715.99743 385.24414 715.18555 C 385.02001 712.35101 385.63623 709.14056 385.24414 706.35547 C 384.31676 699.76378 384.52538 693.16466 385.13086 686.48242 C 385.66948 680.52982 384.89008 674.25267 385.36328 668.26953 C 385.62634 664.94804 384.71501 655.30611 385.59375 653.91797 C 386.038 653.21626 388.06771 654.96979 388.50977 655.20117 C 390.8008 656.40714 393.74381 654.11288 395.14844 651.33984 C 396.26185 649.14182 396.42969 645.98153 396.42969 643.24609 L 396.42969 639.56641 C 396.42969 638.1374 395.99288 637.27575 395.8457 635.88477 C 395.03545 628.20635 390.07431 634.76688 387.69336 635.51953 C 387.19098 635.67714 386.57434 635.51953 386.06055 635.51953 C 385.9997 635.51953 384.96962 635.64388 384.89648 635.51953 C 383.64697 633.54632 385.06732 631.521 386.06055 630.73633 C 389.75953 628.60997 392.21386 624.86035 389.32422 618.77539 C 388.08079 616.15633 385.39096 616.82119 384.78125 611.04297 C 384.49892 608.36653 385.83925 605.29342 386.29688 602.76367 C 386.63628 600.88993 386.64648 598.47624 386.64648 596.51172 C 386.64648 591.78232 385.72844 587.64543 385.24609 583.07617 C 384.71416 578.03889 385.26846 568.05452 385.71289 563.02344 C 385.94571 560.45196 384.86072 542.94972 388.04297 544.625 C 389.79293 545.54652 389.55664 550.08369 389.55664 552.5332 C 389.55664 562.46765 385.94368 587.86076 392.23633 592.83008 C 393.7362 594.01367 396.07369 592.30604 396.54492 590.07227 C 396.91305 588.32756 396.64794 586.27572 397.01172 584.55078 C 397.24529 583.44667 398.02508 582.44264 398.17773 581.23633 C 398.58248 578.04164 398.7673 574.89473 398.4082 571.48828 C 398.25438 570.03955 397.67535 569.02092 397.47852 567.62109 C 396.74253 562.39023 395.35662 551.35392 396.42773 546.2793 C 397.33384 541.98534 398.9378 535.07423 398.17773 530.27344 C 397.80507 527.91993 397.62247 525.48707 397.24414 523.09766 C 397.09372 522.14631 396.66211 521.23966 396.66211 520.1543 C 396.85222 518.27398 396.14776 515.78131 396.54688 513.89453 C 396.7007 513.16675 397.48912 512.57584 397.71094 511.875 C 397.83793 511.47014 397.8539 511.07432 398.17773 510.76758 C 399.09642 509.89696 399.55491 509.39061 399.92383 507.64258 C 399.99828 507.29108 400.37166 505.39777 400.16016 505.06445 C 399.80677 504.50554 396.57216 501.17865 396.54688 501.01953 C 396.38549 499.99615 395.95859 498.93639 395.84766 497.88867 C 395.62088 495.7402 396.07443 493.41398 395.84766 491.26562 C 395.64356 489.33315 395.51192 487.30784 395.26758 485.37695 C 395.12018 484.20704 395.45013 482.85263 395.26758 481.69727 C 395.11904 480.75337 393.64706 479.60724 393.16797 479.30469 C 392.65615 478.98192 390.43087 475.32627 389.9082 474.70703 C 389.39294 474.096 389.13482 471.91127 388.97461 471.02539 C 388.63596 469.15524 388.12967 467.42061 387.92773 465.50586 C 387.39989 460.50547 387.69531 455.13164 387.69531 450.05078 C 388.11484 442.30332 388.18563 434.43035 387.69531 426.68164 C 387.55547 424.47889 387.77428 422.23554 387.57812 420.05664 C 387.41145 418.22289 385.29921 416.36403 385.71484 414.72266 C 386.23211 412.68099 387.27979 411.54178 387.69531 409.57227 C 388.22191 407.07729 387.60274 402.85844 387.8125 400.18945 C 388.47547 391.81421 388.73999 383.34417 389.32812 374.98242 C 389.73972 369.13617 389.21094 362.97584 389.21094 357.13477 C 389.69608 354.30182 388.94832 351.89215 387.51172 350.37891 C 386.2305 349.02984 384.72009 348.05035 383.55664 346.21289 C 383.39563 345.95286 383.72105 344.91057 383.55664 344.65039 C 379.51368 338.25932 381.69992 322.23687 383.22852 314.99023 C 383.88491 311.87991 383.22852 306.78534 383.22852 303.53906 C 383.22852 301.82868 383.69748 297.7348 383.22852 296.25391 C 382.6397 294.39313 382.75827 292.69096 382.23828 291.04883 C 381.03582 287.25082 376.49032 283.18729 377.95508 278.56055 C 379.26446 274.42469 382.09084 274.86881 383.22852 271.27539 C 383.47872 270.486 384.17119 263.39938 383.55664 262.42773 C 378.71204 254.77056 382.15753 236.79454 378.28711 230.68164 C 376.72431 228.21391 370.08379 234.26738 369.05859 235.88672 C 367.08693 239.00075 370.95442 252.79556 370.04688 255.66211 C 363.42189 276.5892 359.50586 272.30291 359.50586 248.37695 C 359.50586 245.18767 358.1875 240.90491 358.1875 236.40625 C 358.1875 234.84708 359.0274 230.91252 359.83398 229.63867 C 360.76594 228.16666 359.83398 225.47813 359.83398 223.39648 C 359.66617 221.04766 359.61954 218.76888 359.73633 216.375 C 359.81948 214.66786 359.65318 212.93178 359.73633 211.22461 C 359.8569 208.73258 360.21932 205.32815 360.78516 202.94531 C 360.88191 202.53644 361.19832 202.1683 361.25195 201.65625 C 361.33624 200.85745 361.31801 200.06059 361.48242 199.26367 C 362.52221 194.33615 365.84644 190.87315 364.2793 185.09766 C 363.54569 182.39408 359.33277 178.48383 357.52344 180.86523 C 356.1969 182.61092 355.70515 186.58488 355.54297 189.14453 C 355.10606 196.0472 355.03722 202.89314 354.49414 209.75586 C 354.2942 212.28391 354.61849 214.94054 354.49414 217.48242 C 354.39738 219.49627 353.92812 221.40246 353.79297 223.36914 C 353.64783 225.42577 353.99517 230.82121 353.44336 232.56641 C 352.13152 237.07013 353.35377 242.352 352.63086 246.91797 C 352.14511 249.98721 350.89829 251.63394 350.30078 254.46484 C 349.73604 257.14098 351.79539 259.22649 351.4668 261.82227 C 351.37004 262.59265 350.78426 263.18757 350.65039 264.0332 C 350.3896 265.68331 350.1146 267.78893 350.30078 269.54883 C 350.69895 273.3186 352.51367 277.565 352.51367 281.32812 C 352.85572 286.58734 352.74609 291.99123 352.74609 297.33594 C 352.74609 302.15937 348.60682 307.12687 345.75781 304.87695 C 343.3402 302.96776 343.6364 295.33444 344.00781 291.81445 C 344.61401 286.06889 345.11492 275.33234 344.5918 269.54883 C 344.0887 263.98808 343.17801 258.04607 343.54492 252.25391 C 343.72558 249.40271 344.896 246.31675 345.98828 244.16016 C 346.27326 243.59693 346.86841 243.24896 347.1543 242.68555 C 349.12574 238.78606 347.93204 233.42976 346.10547 230.54492 C 345.32976 229.31975 344.44591 227.21687 343.42578 226.67969 C 342.13594 225.62391 341.24745 224.05945 340.74609 222.08008 C 340.31848 220.39093 339.66421 219.00045 339.46484 217.11133 C 339.14245 214.05581 340.34364 203.96423 339.23242 202.20898 C 338.52886 201.09769 335.70403 199.58399 334.68945 199.26367 C 333.54599 198.90235 332.65064 200.46353 331.77734 201.29102 C 324.09564 208.57046 335.3429 219.28498 332.59375 227.96875 C 332.22373 229.13806 330.44233 229.18906 329.67773 229.99414 C 328.42611 231.31199 327.6411 232.4754 326.06836 233.30273 C 324.74114 234.00123 324.01366 232.47679 323.1582 231.46289 C 322.7863 231.02224 321.44646 229.98622 321.29297 229.62305 C 320.40769 227.52601 319.39494 222.97755 320.01172 220.05469 C 320.61792 217.18168 322.54431 206.82164 322.10547 204.04883 C 321.61685 200.96281 320.62432 199.54249 319.7793 196.87305 C 319.32303 195.43263 318.95958 193.73732 318.49609 192.27344 C 317.44093 188.92871 320.72167 182.79631 321.17578 179.21094 C 321.46492 176.92712 320.90019 173.84471 320.35938 171.84961 C 320.08498 170.83927 319.66211 170.23132 319.66211 169.0918 C 318.31312 161.4533 318.46761 151.812 318.97656 143.77344 C 319.0994 141.84603 319.3886 139.22392 319.14062 137.26367 C 317.49139 124.23851 307.77479 134.66953 306.78516 128.41797 C 306.38362 125.88126 309.93534 118.33508 308.59766 114.10938 C 305.58484 104.59288 305.44886 91.444414 306.29102 80.802734 C 306.53139 77.767324 307.60668 73.255569 306.94727 70.130859 C 306.39855 67.530397 304.73553 64.261472 303.32422 62.589844 C 302.89252 62.078406 302.40401 62.016677 302.17188 61.283203 C 300.98045 55.657388 302.00175 50.194653 303.12109 44.894531 C 303.47297 43.227125 303.23242 40.410111 303.23242 38.636719 C 303.23242 33.662619 302.99359 29.093276 304.39844 24.65625 C 304.64789 23.867856 304.5568 22.496739 304.74805 21.892578 C 305.17154 20.555744 304.39844 17.360901 304.39844 15.820312 C 304.39844 14.694973 304.37616 13.583151 304.51562 12.509766 C 304.93258 9.2204957 307.09182 7.442914 306.49609 3.6796875 C 306.14271 1.4496377 303.36212 0.018916752 301.04297 0.0078125 L 301.03711 0 z M 347.125 441.99023 C 347.49313 441.90331 348.17746 442.23173 348.33594 442.48242 C 348.72258 443.09346 349.40392 442.9287 349.73633 443.71484 C 350.75336 446.12437 349.95974 450.59281 348.04492 451.19727 C 345.2226 452.08901 342.84022 446.32882 345.36914 443 C 345.77873 442.45972 346.34646 441.77908 346.89453 442.21875 C 346.91721 442.08458 347.00254 442.01631 347.125 441.99023 z M 387.63672 516.41992 C 388.58633 516.42748 389.71921 517.22951 389.88086 518.50586 C 390.11254 520.33368 389.81184 522.68923 389.30273 524.29492 C 389.21845 524.5644 388.98934 524.65662 388.84961 524.81445 C 387.76262 526.04027 385.7994 525.66488 385.51367 523.18555 C 385.4343 522.49253 385.19625 521.85234 385.14258 521.17188 C 385.01559 519.66263 385.76501 516.88555 386.79297 516.68164 C 387.02654 516.49796 387.3203 516.4181 387.63672 516.42188 L 387.63672 516.41992 z M 378.13477 778.11523 L 378.13477 778.11719 C 378.51196 778.07939 379.04712 778.22909 379.26758 778.28125 C 379.73057 778.41051 380.28185 778.6551 380.66797 779.0625 C 380.86677 779.27226 380.90791 779.62009 381.03906 779.9082 C 381.21443 780.29572 381.50561 780.60187 381.6543 781.01172 C 382.05047 782.10464 382.38402 783.46363 382.72656 784.6543 C 382.88228 785.19828 383.09806 785.6374 383.2207 786.2168 C 383.48716 787.48332 383.80969 790.79623 383.42773 792.00391 C 383.23498 792.61373 380.26684 793.00661 379.76367 793.04883 C 378.74588 793.14823 377.70652 793.48895 376.67188 793.43555 C 376.41751 792.89035 376.41254 789.36275 376.34375 788.49414 C 376.24057 787.19519 375.96696 785.95464 375.84961 784.66016 C 375.68822 782.88117 376.12248 780.90162 376.67188 779.45508 C 376.84384 779.00055 377.51644 778.45949 377.82617 778.21484 C 377.89949 778.15286 378.00891 778.12771 378.13477 778.11523 z M 383.79688 798.66797 C 383.8599 798.67269 383.90695 798.68637 383.92188 798.71094 C 384.16603 799.09717 384.25195 802.9091 384.25195 803.5918 C 384.25195 806.88237 384.31291 810.45924 383.30469 813.41211 C 382.68707 815.22352 382.11328 815.03938 381.12305 814.25781 C 380.72639 813.94487 380.30911 813.54084 380.05078 812.95898 C 379.63522 812.02128 379.22815 810.93609 378.97852 809.83398 C 378.70904 808.64169 378.50459 807.40293 378.2793 806.19141 C 377.94519 804.39863 377.66648 802.58879 377.33203 800.79688 C 377.33203 800.75908 377.40014 800.30501 377.41602 800.27148 C 377.60083 799.97706 377.73605 800.09208 377.94922 799.94922 C 378.28031 799.72585 378.64119 799.41073 378.97852 799.23438 C 379.19811 799.11003 379.53603 799.14811 379.76367 799.10352 C 380.03202 799.05363 380.27419 798.88262 380.54492 798.8418 C 381.41966 798.69137 382.33867 798.71094 383.2207 798.71094 C 383.26039 798.71094 383.41932 798.68321 383.57617 798.67188 C 383.65498 798.66621 383.73385 798.66324 383.79688 798.66797 z M 121.35156 835.125 C 122.83744 835.2244 123.63616 836.47977 124.23047 839.29688 C 124.30995 839.6757 124.45675 840.92994 124.31445 841.37891 C 124.01065 842.33894 123.70133 843.12119 123.49219 844.11328 C 123.46497 844.23876 122.67498 845.01201 122.58594 845.15234 C 122.29692 845.61061 122.19976 846.47715 121.59766 846.71484 C 121.96242 854.47127 120.45522 862.43979 121.26758 870.13672 C 121.46169 871.9733 122.64276 872.4933 122.99609 874.16797 C 123.43302 876.23881 123.85056 880.18086 123.57422 882.36523 C 123.45872 883.27187 123.34392 884.80062 123.49219 885.74414 C 123.86341 888.08896 124.66822 890.46058 124.39648 893.03516 C 123.98167 896.96605 119.12301 898.10882 117.14648 897.32812 C 111.75875 895.20112 114.5989 887.62818 113.93359 881.32227 C 113.45382 876.7753 113.77148 872.02173 113.77148 867.40039 C 113.77148 864.1963 113.60007 860.82037 113.85156 857.64258 C 113.93479 856.59686 114.12263 855.57649 114.18359 854.52344 C 114.3361 851.86019 114.30209 849.39654 114.83984 846.8457 C 115.12214 845.50862 115.69349 844.15581 116.07812 842.94141 C 116.65614 841.1145 116.34506 838.77304 117.14648 837.08594 C 117.54863 836.2377 118.97419 835.60212 119.61914 835.39844 C 120.28421 835.18867 120.85422 835.09369 121.34961 835.12695 L 121.35156 835.125 z M 381.06641 879.90625 L 381.06836 879.90625 C 381.32884 879.93275 381.5298 879.98123 381.61328 880.08789 C 381.82002 880.34754 381.61469 880.27951 381.73828 880.47461 C 382.03384 880.94157 382.3992 881.595 382.43945 882.29883 C 382.5226 883.73501 382.25804 885.01557 382.14844 886.39453 C 382.12576 886.67535 381.97933 886.91121 381.94531 887.17578 C 381.88446 887.62286 381.92326 888.21497 381.90625 888.67188 C 381.76301 891.14833 382.66801 894.63501 381.82227 896.80469 C 380.77492 899.49341 378.49272 899.30298 377.04297 897.58594 C 376.30713 896.71411 375.00865 892.97913 374.86133 891.47461 C 374.53213 888.09809 375.70914 885.2526 377.04297 882.81836 C 377.04297 882.27067 377.59523 882.27974 377.82812 881.91211 C 378.10894 881.46873 378.70259 881.02113 378.85547 880.54102 C 378.97972 880.15379 380.28208 879.85465 381.06641 879.90625 z M 381.36523 904.66211 C 383.07007 904.58765 385.19432 906.30876 385.0332 909.10156 C 384.99919 909.65175 384.8679 910.59632 384.62109 910.98633 C 383.28749 913.09205 380.78465 913.7998 379.10352 912.35156 C 378.81249 912.09947 378.32646 911.67607 378.23828 911.11719 C 378.02474 909.76268 378.21668 908.19219 378.60938 906.95508 C 378.96692 905.82738 379.87221 904.9216 380.66992 904.80859 C 380.888 904.72166 381.1218 904.67231 381.36523 904.66211 z M 384.8457 954.21094 C 384.97156 954.20338 385.09226 954.23685 385.19922 954.32227 C 385.92251 954.89479 387.24799 957.29643 388 958.48438 C 388.75685 959.67916 390.03168 960.29548 390.7168 961.73828 C 390.8899 962.10452 391.16426 962.84274 391.21094 963.29492 C 391.63844 967.35115 390.94035 971.62182 391.70703 975.6582 C 392.07969 977.62212 392.73842 979.48879 393.02344 981.51367 C 393.38476 984.08379 393.17929 988.71177 391.78906 990.35938 C 391.38295 990.84497 390.7877 990.74805 390.30664 990.74805 C 387.24099 990.74805 387.18352 988.9397 385.28125 985.93555 C 384.9615 985.43007 384.63653 985.14378 384.37695 984.63086 C 383.69452 983.28346 380.94873 982.52693 380.58594 981.38086 C 379.9698 979.43346 381.72734 975.89773 382.39844 974.48438 C 383.25949 972.67001 383.11731 966.65344 382.64453 964.59961 C 382.42759 963.65696 382.41326 962.6804 382.15039 961.73242 C 381.16488 960.56496 381.24893 957.17429 381.9043 955.62109 C 382.21006 954.89456 383.34438 954.91586 383.79883 954.71094 C 384.04828 954.59906 384.46987 954.24483 384.8457 954.21875 L 384.8457 954.21094 z M 118.39844 960.16211 C 118.76244 960.1999 119.12897 960.31914 119.45312 960.44727 C 121.23696 961.15147 121.73597 962.91602 121.43359 965.7832 C 121.18596 968.12655 121.40204 969.32552 120.44531 971.21094 C 120.31753 971.46417 120.26374 971.9004 120.0957 972.12891 C 118.92304 973.7165 117.7952 974.08504 117.58984 977.00586 C 117.43061 979.26995 119.25771 980.93903 119.04492 982.61914 C 118.86634 984.03163 118.05682 984.91273 117.93945 986.38867 C 117.73328 988.97417 118.1653 991.67337 117.70703 994.20898 C 117.54583 995.10194 117.13845 995.65586 116.77344 996.32812 C 116.3385 997.1292 115.8879 998.71257 115.72656 999.73047 C 115.33721 1002.1923 116.30719 1005.7148 115.02734 1007.7363 C 114.30316 1008.8765 112.0406 1008.3683 111.30078 1007.6367 C 110.72997 1007.0729 110.10218 1005.4431 109.95898 1004.4199 C 109.77231 1003.0934 109.92607 1000.9656 110.66016 1000.0938 C 110.96467 999.73356 111.28484 999.38403 111.53125 998.89844 C 111.95885 998.05885 112.05794 995.42062 111.93945 994.29492 C 111.77278 992.71897 110.48437 991.85772 110.48438 989.51562 C 110.48438 988.23047 110.55124 987.39741 110.95117 986.29492 C 111.0381 986.04887 111.24715 985.70758 111.30078 985.46289 C 111.73311 983.41579 112.02438 981.1867 111.99805 978.9375 C 112.11355 978.18613 111.99923 977.37379 112.11523 976.63867 C 112.2465 975.81277 112.38782 975.13175 112.46484 974.24609 C 112.6576 972.10832 112.21016 969.72663 112.69727 967.80273 C 112.79663 967.41272 112.69582 967.16734 112.87305 966.79102 C 113.30388 965.88438 114.0144 965.48196 114.61914 964.76562 C 115.05867 964.24397 115.23097 963.53363 115.49414 962.83789 C 115.89157 961.79092 116.77863 960.90282 117.35742 960.44531 C 117.67324 960.19549 118.03442 960.13338 118.39844 960.16211 z M 389.53711 1010.0332 L 389.53906 1010.0332 C 390.48085 1009.9954 391.54605 1011.1956 391.82422 1012.5137 C 392.10579 1013.8529 391.99722 1019.5061 391.64648 1020.6113 C 391.20821 1021.9955 390.87298 1023.6146 390.25 1024.8438 C 389.87772 1025.579 389.64569 1026.424 389.32031 1027.1426 C 388.89145 1028.0914 388.41538 1028.517 388.20898 1029.7148 C 387.43411 1034.2 389.41419 1037.966 388.03516 1042.3203 C 387.99547 1042.4481 387.32853 1042.8177 387.2207 1042.8711 C 385.68705 1043.6796 384.46844 1044.4267 382.9668 1043.1484 C 381.51104 1041.9102 381.94485 1039.3362 382.03711 1037.168 C 382.08435 1035.9782 381.99742 1034.771 382.03711 1033.5801 C 382.09796 1031.6003 382.53829 1028.615 383.02539 1026.7695 C 383.18451 1026.1647 383.44678 1025.6146 383.60938 1025.0234 C 384.72093 1021.0105 385.29397 1016.6395 386.52148 1012.6973 C 387.40306 1012.0005 388.07293 1010.602 389.14258 1010.1191 C 389.26957 1010.0696 389.40256 1010.0332 389.53711 1010.0332 z M 386.32812 1050.7695 C 386.54988 1050.7645 386.78233 1050.7716 387.01367 1050.791 L 387.01562 1050.791 C 387.94297 1050.8657 388.87129 1051.1484 389.20312 1051.6152 C 390.25595 1053.0939 389.98387 1056.7915 389.55273 1058.6055 C 389.32105 1059.5792 388.90932 1060.4329 388.73633 1061.457 C 388.59989 1062.2233 388.66865 1063.0688 388.61914 1063.8477 C 388.4124 1066.7911 388.30129 1069.5974 386.87305 1071.8535 C 386.51513 1072.4198 385.99917 1073.0825 385.53516 1073.416 C 384.43853 1074.2034 382.3864 1072.8515 382.03906 1071.0234 C 381.43672 1067.8551 381.89204 1063.6739 382.38867 1060.5391 C 382.80824 1057.8896 382.94273 1055.1509 383.43555 1052.5332 C 384.00573 1052.3083 384.33417 1051.6466 384.83594 1051.1504 C 385.07915 1050.91 385.66095 1050.7847 386.32812 1050.7695 z M 385.21875 1092.2129 C 385.95697 1092.2624 386.67263 1092.5084 387.28125 1093.4688 C 388.51663 1095.4196 388.01605 1098.0777 388.67773 1100.4648 C 389.06869 1101.8765 389.50569 1103.2945 389.90039 1104.6973 C 390.31395 1106.1655 389.92444 1109.8439 389.14453 1110.8574 C 388.7817 1111.3356 388.2708 1111.5804 387.86133 1111.8711 C 386.37798 1112.9255 385.40022 1113.0075 383.96094 1111.8711 C 383.54534 1111.5419 383.22136 1111.5108 382.91016 1110.8574 C 382.54694 1110.0924 382.571 1109.0537 382.32812 1108.1914 C 381.29904 1104.534 380.27452 1099.7666 381.22266 1095.7734 C 381.41957 1094.9438 381.88564 1094.3547 382.26953 1093.748 C 382.63804 1093.1656 382.95699 1092.4521 383.49414 1092.2734 C 383.81616 1092.2734 384.14559 1092.2344 384.47656 1092.2227 C 384.72488 1092.1962 384.97236 1092.1978 385.21875 1092.2129 z M 375.49609 1121.2598 L 375.49609 1121.2656 C 376.03211 1121.3151 376.48349 1121.7423 376.91016 1122.0801 C 377.15885 1122.2762 377.86831 1126.1103 377.95898 1126.6836 C 378.19974 1127.6151 378.55363 1128.4333 378.89258 1129.2617 C 379.7678 1131.398 380.18403 1133.1192 381.51367 1134.8691 C 382.66374 1136.383 384.22035 1137.951 384.83203 1140.2051 C 385.24215 1141.7157 385.12716 1143.7289 385.29883 1145.3594 C 385.88628 1150.9267 385.88169 1155.8301 385.53125 1161.3672 C 385.41824 1163.1613 385.03009 1167.7021 383.78516 1168.3574 C 381.82574 1169.3883 378.80518 1168.0442 378.48438 1164.4961 C 378.27915 1162.2291 379.60946 1160.0172 379.24023 1157.6855 C 378.99872 1156.1597 377.07979 1154.9054 376.44336 1153.7324 C 376.35152 1153.5646 376.15573 1152.7662 376.09375 1152.5352 C 375.04255 1148.6613 375.79378 1146.4776 375.33789 1142.875 C 375.11452 1141.1091 374.41175 1139.6717 374.05859 1137.998 C 373.34509 1134.6163 372.54297 1130.9318 372.54297 1127.3281 C 372.54297 1125.2792 373.54676 1121.8936 374.92969 1121.3477 C 375.12962 1121.2732 375.318 1121.2348 375.49609 1121.2598 z M 269.27539 1164.791 C 270.46383 1164.8024 271.73262 1165.3619 272.58789 1166.5176 C 273.15856 1167.2913 273.60574 1168.4924 273.83984 1169.6016 C 273.98498 1170.2896 274.29694 1170.9363 274.36523 1171.6719 C 274.58936 1174.1509 274.66526 1176.7214 273.54883 1178.7051 C 272.78763 1180.0574 271.71042 1179.0987 271.10547 1177.9238 C 270.80651 1177.3413 270.64886 1176.696 270.375 1176.084 C 270.25935 1175.827 270.09896 1175.576 269.99805 1175.3027 C 269.752 1174.6346 269.61425 1173.8063 269.38672 1173.1406 C 269.07566 1172.2278 268.42476 1171.6718 267.93164 1171.0703 C 267.49809 1170.5413 267.16302 1169.788 266.64844 1169.416 C 266.00274 1169.6197 265.56927 1168.4054 265.77344 1167.4395 C 266.01495 1166.2956 267.44825 1165.1719 268.13477 1164.9551 C 268.49458 1164.8432 268.87922 1164.7861 269.27539 1164.791 z M 351.42773 1191.6738 L 351.42773 1191.6758 C 351.59592 1191.7136 351.76257 1191.8259 351.92188 1191.9102 C 352.60831 1192.2715 353.8911 1193.9327 353.99023 1195.0352 C 354.04353 1195.6201 353.88822 1196.1066 353.81641 1196.6445 C 353.52689 1198.7786 352.83351 1200.3012 351.45508 1200.7852 C 350.91033 1200.9726 350.29989 1201.2184 349.73633 1201.0137 C 348.83914 1200.6871 348.35744 1198.6229 348.25195 1197.3379 C 348.1911 1196.6237 348.35183 1195.8679 348.42969 1195.1758 C 348.46937 1194.8194 348.50777 1194.3389 348.63477 1194.0234 C 348.93108 1193.2944 349.3639 1192.9909 349.82617 1192.5977 C 350.15877 1192.3146 350.50241 1192.0349 350.875 1191.9082 C 350.28955 1191.6773 351.23388 1191.6315 351.42773 1191.6738 z M 118.25977 1199.541 C 118.33925 1199.5146 118.47224 1199.5449 118.58203 1199.5449 C 119.26821 1199.5449 119.59351 1199.7233 120.12695 1200.3242 C 120.3679 1200.5948 120.70969 1200.6678 120.93945 1200.9707 C 121.66737 1201.9295 122.3492 1204.095 122.51367 1205.5684 C 122.7525 1207.7061 122.0968 1210.5018 121.14453 1212.0059 C 120.66961 1212.7572 119.87133 1213.2718 119.2793 1213.666 C 118.85368 1213.948 118.37862 1214.1673 117.91016 1214.125 C 116.25172 1213.961 115.28399 1211.6459 114.91211 1209.2969 C 114.80281 1208.6051 114.65634 1208.0364 114.62305 1207.3145 C 114.59092 1206.568 114.44601 1205.8305 114.5625 1205.0645 C 114.84143 1203.1931 115.44659 1201.5047 116.57031 1200.6465 C 117.07666 1200.2602 117.69945 1199.8242 118.26172 1199.8652 C 118.15867 1199.6494 118.18374 1199.5678 118.25977 1199.541 z M 385.13281 1235.2617 C 385.33766 1235.2542 385.54238 1235.2734 385.73438 1235.2734 C 385.73611 1235.2734 386.50013 1235.247 386.51562 1235.2734 C 387.39493 1236.6622 387.69453 1239.1459 386.96875 1240.8652 C 386.66374 1241.5893 386.05388 1241.8476 385.56836 1242.1035 C 385.28187 1242.2539 384.91805 1242.3996 384.62109 1242.166 L 384.62109 1242.1699 C 384.21483 1242.473 383.94276 1242.9863 383.5918 1243.4023 C 382.69325 1244.4667 381.80219 1245.3216 381.08008 1246.6523 C 380.85179 1247.0721 380.71772 1247.7361 380.54492 1248.2148 C 380.1147 1249.4034 379.56627 1249.9963 378.89453 1250.7539 C 378.61749 1251.0657 378.49531 1251.399 378.15625 1251.666 C 377.93817 1251.8387 376.82448 1252.4923 376.63086 1252.1855 C 376.22872 1251.5496 376.01562 1250.5614 376.01562 1249.6445 C 376.01562 1249.1838 375.95477 1248.6039 376.01562 1248.1484 C 376.33159 1245.6564 378.51697 1244.1584 379.51367 1242.3594 C 379.92923 1241.6092 380.26027 1240.663 380.71094 1239.9512 C 381.58915 1238.5644 383.41167 1235.9957 384.53906 1235.4023 C 384.72388 1235.3029 384.928 1235.2693 385.13281 1235.2617 z M 354.1582 1235.6699 L 354.1582 1235.6758 C 354.46057 1235.6871 354.87473 1236.0086 355.1543 1236.1562 C 355.79058 1236.4904 356.42026 1236.5014 356.96289 1237.2168 C 357.1205 1237.4254 357.201 1237.7811 357.3125 1238.0469 C 357.99796 1239.6698 357.87588 1240.5567 357.3125 1242.1875 C 357.20327 1242.5042 357.13159 1242.855 356.99023 1243.1543 C 356.72453 1243.7144 356.21902 1243.8988 355.82617 1244.1211 C 355.09317 1244.5347 354.4666 1244.8025 353.67188 1244.7168 C 353.2737 1244.6673 352.92177 1244.3694 352.56445 1244.1211 C 351.43252 1243.3387 350.52237 1241.4701 350.875 1239.4297 C 351.24766 1237.2698 352.45473 1235.6978 353.9043 1235.793 C 353.97271 1235.706 354.05653 1235.6699 354.1582 1235.6699 z M 116.20703 1266.0664 L 116.20898 1266.0781 C 117.1638 1265.9538 118.2988 1267.323 118.72656 1268.4043 C 119.25787 1269.7463 119.39989 1271.5655 119.54297 1273.0898 C 119.66221 1273.052 119.68553 1273.041 119.6875 1273.041 C 119.7968 1273.7377 120.02078 1274.4042 120.06836 1275.2031 C 120.08952 1275.608 120.20878 1275.9762 120.24219 1276.3984 C 120.31547 1277.3448 120.24249 1278.7265 120.18164 1279.6641 C 120.16048 1279.9596 120.03807 1280.2051 120.00391 1280.4883 C 119.85662 1281.6532 119.37528 1282.303 118.75195 1282.9297 C 118.50095 1283.1818 118.13151 1283.5968 117.82227 1283.6602 C 117.28363 1283.772 116.75112 1283.5733 116.27734 1283.2031 C 115.23671 1282.381 115.6509 1278.585 115.57812 1277.0879 C 115.45888 1274.6638 114.50429 1272.4987 114.61719 1270.0039 C 114.66439 1269.0327 114.92594 1267.4759 115.3457 1266.7383 C 115.59186 1266.3073 115.88884 1266.1049 116.20703 1266.0664 z M 115.55078 1431.0625 C 119.01272 1431.4501 117.71019 1445.9555 117.89062 1449.0957 C 117.95771 1450.2482 118.13437 1451.2666 118.38477 1452.3516 C 118.11117 1454.0829 118.08642 1455.3151 118.96289 1457.1621 C 119.08871 1457.4229 119.3506 1457.4615 119.45703 1457.6875 C 119.74465 1458.2936 119.86544 1459.0408 120.11719 1459.6367 C 120.74214 1461.1171 121.62883 1462.7431 122.0918 1464.4492 C 122.81213 1467.104 121.56394 1470.2383 121.02344 1472.5156 C 120.75245 1473.6557 120.85742 1474.9672 120.85742 1476.1582 C 120.85742 1478.9731 122.59276 1482.2307 122.75195 1484.748 C 123.03375 1489.1965 121.61826 1493.2876 120.11719 1496.8438 C 119.73839 1497.7404 119.0125 1498.4583 118.55078 1499.1875 C 116.86878 1501.8444 113.77526 1504.52 112.62109 1499.9688 C 111.55077 1495.7399 112.62109 1490.1867 112.62109 1485.791 C 112.62109 1483.1105 112.83532 1480.0666 112.20898 1477.5938 C 112.04106 1476.9331 111.53423 1476.4493 111.30273 1475.9004 C 110.61692 1474.2822 110.43728 1471.7341 110.64258 1469.7852 C 110.87819 1467.5512 112.24966 1466.3435 112.62109 1464.1914 C 113.11092 1461.3575 112.24971 1455.0569 112.45312 1451.834 C 112.51398 1450.8888 112.54058 1449.4331 112.86523 1448.5781 C 113.07538 1448.0254 113.52765 1447.5222 113.60938 1446.7539 C 113.74389 1445.4938 113.65582 1443.8423 113.52539 1442.5938 C 113.26434 1440.1213 111.98798 1436.0402 112.94727 1433.6152 C 113.07445 1433.2947 113.31954 1433.0298 113.44336 1432.7031 C 113.62867 1432.215 113.96687 1431.6358 114.34766 1431.4043 C 114.65266 1431.2168 114.94331 1431.1077 115.20312 1431.0703 L 115.20117 1431.0684 C 115.32297 1431.0506 115.43911 1431.05 115.55078 1431.0625 z M 51.570312 1615.9121 L 51.572266 1615.9121 C 52.882855 1615.915 54.73981 1617.0308 55.322266 1617.4902 C 55.729752 1617.8119 55.107081 1617.5274 55.439453 1618.041 C 58.665544 1623.1363 55.493722 1627.9278 56.138672 1634.0488 C 56.378256 1636.3185 57.370155 1642.2621 57.068359 1644.168 C 56.896353 1645.2572 56.069213 1646.1803 55.439453 1646.3789 C 48.771384 1648.4852 51.967511 1632.1867 51.246094 1627.0586 C 50.801848 1623.9018 50.866965 1620.5199 50.195312 1617.4902 C 50.195312 1616.3116 50.784212 1615.9107 51.570312 1615.9121 z "
       style="opacity:1;fill:#ffffff;stroke:none;stroke-width:2.22487px;stroke-linecap:butt;stroke-linejoin:miter;stroke-opacity:1"
       id="path197-4" />
    <path
       d="m 202.24703,119.59132 c -0.22052,0.0274 -0.49876,0.13643 -0.85414,0.31414 -0.25714,0.12855 -0.53481,0.30557 -0.74377,0.51452 -0.71944,0.71946 -0.66132,2.12434 -0.74377,3.03111 -0.2708,2.97883 0,5.99429 0,8.98293 0,1.54492 0.0128,3.15178 -0.11547,4.69184 -0.16149,1.93801 -0.45679,3.90985 -0.45679,5.83466 -1.45127,4.7149 -0.143,10.22438 -1.08678,14.94325 -0.33194,1.65969 0.33194,3.51781 0,5.1775 -0.31707,1.58541 -0.51498,6.54648 0,8.09143 0.75629,2.26886 1.00877,8.83631 0.48565,11.97498 -0.28278,1.6968 -0.85856,2.94354 -1.29564,4.69184 -0.23407,0.93628 0.15441,1.90138 0.32433,2.75092 0.34156,1.70767 0.64698,5.64181 0.64698,7.44446 0,2.10048 -1.01568,4.88476 -0.32433,6.95879 0.87669,2.6301 2.53694,12.29256 1.61828,15.04854 -0.1681,0.50421 -0.20169,2.14431 -0.48396,2.42657 -1.44149,1.44155 -1.61828,3.79226 -1.61828,5.82617 -0.10789,0.32368 -0.26332,0.63568 -0.32434,0.97132 -0.41975,2.30859 -0.0703,5.2887 0.16132,7.60577 0.3103,3.10302 0,6.42134 0,9.54671 0,10.78802 -0.32264,21.5195 -0.32264,32.36402 0,2.71313 0.38411,5.72528 0,8.41407 -0.42979,3.00848 -0.66696,7.17184 -0.16302,10.19537 0.17902,1.07412 0.55067,2.06717 0.91697,3.05318 l 0.0476,12.52346 c -0.13155,0.69276 -0.17182,1.36538 0.007,1.90017 0.21544,0.55511 0.0374,1.29815 0.0374,1.90187 0,2.84064 -0.0826,5.76858 0.0577,8.63991 0.37558,1.87794 0.95153,4.34166 1.14451,6.46466 0.14033,1.54354 -0.25457,3.10184 -0.34471,4.63411 -0.0838,1.42439 0.10164,2.86801 0,4.29109 -0.32187,4.50631 -0.13259,9.04618 0.0577,13.5593 0,2.02872 -0.087,4.15017 0.0577,6.17768 0.0476,0.66617 0.17151,1.32558 0.17151,2.00375 0,1.73702 -0.28856,3.45078 -0.17151,5.20637 0.14814,2.22216 0.55522,4.41257 0.68603,6.63616 0.12317,2.09365 -0.16264,4.2659 -0.28528,6.35088 -0.0492,0.83622 0.0283,1.67914 0,2.51658 -0.33579,0.67156 -0.53341,4.0968 -0.45849,4.92108 0.0756,0.83153 0.40445,1.63317 0.51453,2.45885 0.25958,1.94693 0.078,3.99175 0.45848,5.89409 0.28779,1.43891 0.73142,2.82031 0.91528,4.29109 0.0574,0.45925 0.35261,0.85708 0.40075,1.31433 0.0803,0.76321 0.005,1.58897 -0.0577,2.34677 -0.0897,1.07627 -0.47377,2.15962 -0.47377,3.19581 -0.004,7.46725 0.20207,15.14888 0.20207,22.65431 0,4.56695 0.48565,9.04371 0.48565,13.59327 0,1.96353 -0.14421,17.41238 0.80999,18.36661 0.89909,0.89909 1.85583,-2.77721 1.94094,-3.07525 0.33119,-1.15891 0.0926,-2.40213 0.32433,-3.56091 0.81967,-4.09836 1.29394,-8.01014 1.29394,-12.29761 0,-1.42416 -0.1831,-8.54359 0.48567,-9.5467 0.46562,-0.69839 1.25377,0.24163 1.7796,-0.80999 0.30327,-0.60671 0.11587,-1.47862 0.32434,-2.10395 0.48727,-1.46182 0.90058,-2.95708 1.29394,-4.53052 0.40895,-1.63578 -0.009,-3.5103 0.32434,-5.1775 0.31615,-1.5806 0.97132,-3.00676 0.97132,-4.69354 0,-1.0673 -0.42624,-8.31218 0,-8.7384 0.2264,-0.22641 0.25343,0.78661 0.32263,1.13262 0.1002,0.5009 0.56801,0.89232 0.64867,1.45697 0.35056,2.4539 0.96962,5.14616 0.96962,7.60578 v 19.74207 c 0,1.14882 0.91642,3.41076 2.26526,3.07356 0.8955,-0.22378 1.25093,-1.27855 1.45697,-2.10225 0.17415,-0.69703 -0.76629,-3.98214 -0.48566,-5.66484 0.23133,-1.38746 0.9575,-2.97753 0.64697,-4.53053 -0.19716,-0.98544 -1.37601,-2.42546 -0.80829,-3.56091 0.37711,-0.75412 0.76486,-0.94789 1.45697,-1.29395 0.84335,-0.42166 0.86623,-4.80315 1.94092,-5.34051 1.70016,-0.85006 1.7436,0.53724 2.10394,1.61828 0.13112,0.39334 2.19623,0.85351 2.42659,0.16302 0.45859,-1.37583 -0.23889,-3.26091 0,-4.69354 0.27339,-1.63959 0.96679,-2.73739 1.45696,-4.20788 0.43139,-1.29417 -0.604,-3.32258 0,-4.53052 0.28851,-0.57683 1.91467,1.59033 2.10394,1.7796 2.17903,2.17899 1.61829,-3.48374 1.61829,-4.85316 0.63779,-4.19466 0.43471,-8.56907 0.43471,-12.85799 0,-0.82528 0.38914,-2.14945 0.11378,-2.97507 -0.13835,-0.41475 -2.08035,-1.92376 -1.60131,-2.4028 0.75483,-0.7548 4.09107,2.28615 4.23335,1.71678 0.255,-1.01982 -0.0172,-2.77913 -0.45848,-3.6611 -0.47165,-0.94332 -4.11958,-0.63383 -4.11958,-4.57807 0,-1.91243 3.43355,0.40008 3.43355,-3.31808 0,-0.29049 0.13407,-1.10595 0,-1.37376 -0.50359,-1.0072 -1.51995,-1.26858 -2.51828,-1.6013 -0.454,-0.15149 -2.14308,-3.37736 -1.71507,-4.23337 1.33304,-2.66624 4.27744,2.08693 5.37786,-0.11376 1.97138,-3.94277 0.009,-2.94264 -1.03074,-6.06561 -0.29213,-0.87595 0,-2.37328 0,-3.31807 -1.02744,-5.44359 -0.34302,-10.98084 -0.34302,-16.47664 0,-1.41049 -0.48186,-3.9538 0.11548,-5.14863 0.162,-0.3237 0.54513,-0.44476 0.7998,-0.57225 1.33866,-0.66934 2.10198,2.46318 2.63205,0.34301 0.22707,-0.90803 0,-2.15366 0,-3.09054 0,-1.12611 0.19531,-4.5287 -0.22924,-5.37787 -0.93902,-1.87806 -1.74491,-4.2373 -2.28734,-6.40692 -0.34799,-1.39206 0.26763,-2.597 0.7998,-3.66109 0.22443,-0.44908 -0.012,-0.97479 0.11547,-1.48754 0.39735,-1.58912 0.68604,-1.93156 0.68604,-3.77656 0.67957,-2.11761 -0.74597,-4.29593 -1.37376,-6.17938 -0.43862,-1.31582 1.06958,-3.32259 1.48753,-4.57637 1.1754,-3.52626 -0.93754,-7.55227 -1.60131,-10.87121 -0.41568,-2.07743 0.28437,-6.35361 -0.22924,-7.89446 -0.13079,-0.39271 -0.1555,-4.76421 -0.11377,-4.80561 0.47266,-0.47263 1.8072,-0.2042 2.28903,-0.68604 1.03598,-1.03598 0.57226,-2.84414 0.57226,-4.11958 0.0329,-0.86103 -0.0399,-1.76471 -0.11547,-2.63204 -0.0887,-1.02015 0.082,-2.0197 -0.056,-3.0328 -0.47481,-3.48253 -0.42376,-6.96969 -0.22924,-10.46877 0.11258,-2.03053 -0.76235,-4.41046 -0.11548,-6.35089 0.33778,-5.33064 0.6283,-10.71515 0.6283,-16.07757 0,-1.55015 -0.20796,-3.15668 -0.0798,-4.69354 0.24613,-2.97293 0.60169,-7.64643 0.24283,-10.51802 -0.20406,-1.63229 -0.91976,-3.17236 -1.53678,-4.61203 -0.39951,-0.93219 -0.43961,-1.84713 -0.8915,-2.75091 -0.4785,-4.11627 -0.6697,-8.63245 -0.36509,-12.89705 0.0582,-0.81634 -0.116,-1.70503 0,-2.51657 0.0762,-0.53336 0.38521,-1.088 0.45849,-1.60131 0.18007,-1.2601 -0.0209,-2.64885 0.22754,-3.89034 0.24908,-1.24599 0.52442,-2.58329 0.68773,-3.89034 0.12717,-1.0168 1.24367,-5.20661 0.68603,-5.95013 -0.53989,-0.71987 -0.98333,-1.56244 -1.48753,-2.40281 -1.01344,-1.68911 -3.35271,-3.26032 -3.77657,-5.37957 -0.45439,-2.26854 -0.92695,-5.31442 -0.45679,-7.66521 0.13079,-0.65202 0.28859,-1.70339 0.11378,-2.40281 -0.40622,-1.62485 -1.3431,-2.77098 -1.83055,-4.23335 -0.67127,-1.53981 -2.54084,-2.03673 -3.43356,-3.37582 -0.97334,-1.45993 -0.97818,-3.44622 -1.14281,-5.09259 -0.21031,-2.10429 0.61267,-4.42236 0,-6.46465 -0.31966,-1.06607 -0.68565,-2.46553 -0.40076,-3.60507 0.10812,-0.43226 0.40577,-0.82273 0.51453,-1.25828 0.19276,-0.7711 0.47709,-2.34326 0.34302,-3.14657 -0.35111,-2.10662 -3.26035,0.0941 -3.26035,1.7745 0,1.39113 0.13248,2.74526 0.28528,4.11789 0.0969,0.8719 0,1.81162 0,2.68978 0,2.25168 -0.0292,4.43878 -0.34301,6.63616 -0.1045,0.7375 0.29007,4.17241 -0.11377,4.57638 -0.19158,0.1915 -0.60496,0.3466 -0.85924,0.51622 -0.0661,0.044 -0.31526,0 -0.39906,0 -1.08406,0 -1.2437,-0.96275 -2.17526,-0.85923 -1.10354,0.12259 -1.29719,0.82106 -2.51657,0.51622 -0.27285,-0.0682 -0.45129,-0.49209 -0.68604,-0.68774 -1.89106,-1.57588 -0.42213,-5.54373 -0.22924,-7.66521 0.22223,-2.44465 0.68603,-4.91839 0.68603,-7.38162 0,-1.42423 0.35297,-4.38663 -0.28528,-5.66315 -0.65443,-1.30884 -2.60272,-1.12135 -2.8613,0.1715 -0.0868,0.43397 -0.28602,1.02947 -0.1715,1.48754 0.32111,1.28449 1.65656,3.52301 0.8015,4.80561 -0.1592,0.23879 -1.59416,0.52168 -1.83055,0.28528 -0.18191,-0.18192 -0.37173,-0.32976 -0.51622,-0.57056 -0.66504,-1.10839 0.10431,-2.61509 -0.22754,-3.77657 -0.17779,-0.62216 -0.4593,-1.43004 -0.34472,-2.11752 0.0734,-0.44027 0.33644,-0.69449 0.40075,-1.14452 0.15346,-1.07418 0.0577,-2.26855 0.0577,-3.43185 0.23138,-1.10048 -0.11032,-2.1339 -0.22924,-3.20432 -0.10581,-0.95224 0.3234,-4.10284 0.0577,-4.63409 -0.19489,-0.38982 -0.4752,-0.35138 -0.80151,-0.51453 -0.64566,-0.32282 -1.49443,1.59008 -1.60129,2.23129 -0.11564,0.69386 -0.0393,1.56638 -0.22925,2.23131 -0.35412,1.23899 -0.49112,2.95809 -0.34302,4.29109 0.12313,1.10821 0.014,2.27362 0.17151,3.37581 0.1088,0.76159 0.22924,1.57108 0.22924,2.34508 0,0.5633 0.14475,2.83032 -0.22924,3.2043 -0.10919,0.10923 -0.75209,0.66516 -1.03074,0.57227 -0.095,-0.0316 -0.0553,-0.20904 -0.11378,-0.28698 -0.86442,-1.15258 -0.8015,-3.76415 -0.8015,-5.20637 0,-1.83154 -0.15191,-3.72659 0,-5.54938 0.1715,-2.05797 0.17151,-4.10593 0.17151,-6.17938 0,-0.92267 0.0835,-1.88499 0,-2.80356 -0.0974,-1.07147 -0.24968,-1.56368 -0.65886,-1.62846 -0.0614,-0.01 -0.12856,-0.009 -0.20207,0 z m 21.04961,42.08223 c 0.32094,0.007 1.35383,0.55789 1.48753,0.64018 0.52398,0.32246 1.46254,1.18558 1.69979,1.73885 0.32213,0.75165 0.18381,1.87293 -0.32433,2.50809 -0.47411,0.59259 -2.27925,1.15937 -2.91224,0.52641 -0.35259,-0.35257 -0.22575,-0.87263 -0.28359,-1.3347 -0.0581,-0.46482 -0.41763,-0.86041 -0.48565,-1.3364 -0.093,-0.65071 -0.0735,-2.13328 0.48565,-2.5081 0.26585,-0.0661 0.15181,-0.0198 0.24283,-0.20207 0.0121,-0.0241 0.0442,-0.0333 0.09,-0.0323 z m -13.83101,3.37072 c 0.54039,0.0145 1.03112,0.36608 1.28037,1.03074 0.21848,0.58261 -0.23314,1.13798 -0.36339,1.65904 -0.14968,0.5987 0.0394,1.23406 -0.32433,1.77961 -0.097,0.14557 -0.56117,0.18203 -0.7285,0.24283 -1.64802,0.59927 -3.0424,-0.69236 -2.83072,-2.38583 0.11473,-0.91773 1.11894,-1.78266 1.98168,-1.98338 0.31901,-0.23926 0.66066,-0.35174 0.98489,-0.34301 z m 21.56244,60.73922 c 0.17798,0.0116 0.38542,0.0543 0.62999,0.13585 0.19818,0.066 0.56534,-0.0203 0.74377,0.11377 0.0822,0.0618 0.16122,0.31005 0.22925,0.40075 0.96592,1.28809 0.0714,2.95768 0.22753,4.51863 0.209,2.10641 0.22925,4.22486 0.22925,6.35089 0,0.98012 0.0887,1.99974 0,2.97507 -0.0919,1.01068 -0.72395,2.02744 -0.8015,3.0328 -0.13841,1.79942 -0.0548,4.61386 -2.17357,5.32013 -1.49825,0.49945 -0.98822,-4.63507 -0.91527,-5.43561 0.21753,-2.39601 0.50742,-4.70641 0.28528,-7.15068 -0.26242,-2.88598 0.0347,-5.8129 -0.34302,-8.69596 0.84832,-0.21208 0.64241,-1.64705 1.88829,-1.56564 z m -1.17678,26.93521 c 0.17895,-0.011 0.4487,0.0323 0.54679,0.0323 1.3101,0 2.18512,0.73118 2.17526,2.11752 0.66279,0.66266 0.38833,2.03431 0.51452,2.91734 0.1344,0.94158 0.037,2.0714 0.22924,3.0328 0.1275,0.63699 0.24719,1.56466 0.11378,2.23129 -0.31041,1.55274 -0.34302,3.21667 -0.34302,4.80562 0,0.46829 0.12676,1.38334 -0.28698,1.65904 -0.77027,0.51351 -1.96136,-0.0441 -2.28733,-0.85924 -0.2159,-0.53966 -0.0343,-1.26118 -0.11547,-1.83055 -0.15406,-1.07887 -0.45679,-2.2288 -0.45679,-3.31808 v -3.08884 c 0,-0.89977 -0.024,-1.80411 -0.17151,-2.68978 -0.15862,-0.95154 -0.57226,-1.66945 -0.57226,-2.63206 0,-0.64758 -0.0668,-1.95754 0.51452,-2.34506 0.0294,-0.0196 0.0796,-0.0286 0.13925,-0.0323 z m -1.93583,31.4963 c 0.12915,-0.0131 0.31373,0.0743 0.81338,0.09 0.54571,0 1.58382,0.31988 1.76094,0.91018 0.21266,0.70899 -0.25991,1.41794 -0.46529,2.06319 -0.13505,0.42468 0.006,0.91738 -0.0611,1.35507 -0.11803,0.76726 -0.98649,1.75268 -1.77961,1.84074 -0.26452,0.0296 -0.50667,-0.11204 -0.7081,-0.2632 -0.20637,-0.15477 -0.46825,-0.33183 -0.56717,-0.58584 -0.23396,-0.60194 -0.0565,-1.38186 0,-2.00206 0.0279,-0.32088 0.0382,-0.64961 0.0611,-0.97131 0.0206,-0.29827 -0.048,-0.61608 0.0187,-0.91018 0.0734,-0.32269 0.30137,-0.74557 0.4466,-1.01207 0.27766,-0.38799 0.35141,-0.50146 0.48057,-0.51452 z m -17.17795,94.33437 c 0.15185,0.0126 0.30695,0.0576 0.43811,0.0968 0.67268,0.20179 1.19708,0.50239 1.37206,1.20226 0.0656,0.26251 0.15641,0.45722 0.11547,0.74376 -0.0159,0.11135 -0.11438,0.18604 -0.14264,0.28528 -0.0591,0.20718 -0.0532,0.52623 -0.0289,0.74377 0.044,0.39586 0.29921,0.74983 0.34302,1.14452 0.0686,0.61762 -0.42474,1.36246 -1.00188,1.57243 -0.25463,0.0923 -0.56286,0.0866 -0.82866,0.0866 -1.11455,0 -1.24494,-0.96503 -1.80169,-1.6013 -0.14598,-0.1669 -0.37295,-0.27414 -0.51622,-0.45849 -0.43963,-0.56532 -0.52652,-1.41974 -0.45679,-2.11753 0.0802,-0.80162 0.76387,-1.01886 1.37206,-1.34319 0.25924,-0.13834 0.41574,-0.29787 0.7149,-0.25811 0.11964,-0.0897 0.26932,-0.1094 0.42113,-0.0968 z"
       style="opacity:1;fill:#ffffff;stroke:none;stroke-width:0.869425px;stroke-linecap:butt;stroke-linejoin:miter;stroke-opacity:1"
       id="path282" />
  </g>
</svg>
